<?xml version="1.0" encoding="UTF-8"?>
<!DOCTYPE svg PUBLIC "-//W3C//DTD SVG 1.1//EN" "http://www.w3.org/Graphics/SVG/1.1/DTD/svg11.dtd">
<!-- Creator: CorelDRAW 2020 -->
<svg xmlns="http://www.w3.org/2000/svg" xml:space="preserve" width="98.6422mm" height="81.6838mm" version="1.1" style="shape-rendering:geometricPrecision; text-rendering:geometricPrecision; image-rendering:optimizeQuality; fill-rule:evenodd; clip-rule:evenodd"
viewBox="0 0 73.3448 60.7355"
 xmlns:xlink="http://www.w3.org/1999/xlink"
 xmlns:xodm="http://www.corel.com/coreldraw/odm/2003">
 <defs>
  <style type="text/css">
   <![CDATA[
    .str2 {stroke:#252422;stroke-width:0.4197;stroke-miterlimit:22.926}
    .str0 {stroke:#252422;stroke-width:0.3935;stroke-miterlimit:22.926}
    .str1 {stroke:#252422;stroke-width:0.2623;stroke-miterlimit:22.926}
    .str3 {stroke:#252422;stroke-width:0.1487;stroke-miterlimit:22.926}
    .str4 {stroke:#252422;stroke-width:0.1487;stroke-miterlimit:22.926;stroke-dasharray:0.314891 0.125956}
    .fil0 {fill:none}
    .fil1 {fill:#FEFEFE}
    .fil2 {fill:#DFDED9}
    .fil3 {fill:#B2D4F1}
    .fil5 {fill:#262523}
    .fil4 {fill:#252422}
   ]]>
  </style>
   <clipPath id="id0">
    <path d="M43.0807 26.0247c0.0393,-0.3086 0.0596,-0.6226 0.0596,-0.9418 0,-0.2869 -0.0164,-0.5696 -0.0483,-0.8475 0.0233,0.001 0.0453,0.0027 0.0657,0.0042 0.246,0.0196 0.2924,0.0815 0.2846,0.216 -0.0079,0.1344 -0.0701,0.342 -0.11,0.5606 -0.04,0.2197 -0.0577,0.4505 -0.0677,0.6247 -0.0101,0.1742 -0.0124,0.2917 -0.1066,0.3536l-0.0014 0.001 -0.0006 0 -0.0044 0.0032 -0.0014 0.001 -0.0029 0.0011 -0.0013 0.001 -0.0045 0.0027 -0.0007 0c-0.0149,0.0074 -0.0332,0.0138 -0.0599,0.0201l0 0z"/>
   </clipPath>
   <clipPath id="id1">
    <path d="M29.1117 25.3597l-0.0003 -0.0005 -0.0007 -0.0015 -0.0019 -0.0036 -0.001 -0.0022 -0.001 -0.0022 -0.0013 -0.0025 -0.0013 -0.0027 -0.0009 -0.002 -0.004 -0.0083 -0.0015 -0.0033 -0.0019 -0.0043 -0.0008 -0.0018 -0.0015 -0.0033 -0.0004 -0.0007 -0.0009 -0.0022 -0.0004 -0.0007 -0.001 -0.0025 -0.0001 -0.0004 -0.0018 -0.0039 -0.0044 -0.0106 -0.0019 -0.0045 -0.0008 -0.0022 -0.001 -0.0024 -0.0003 -0.0007 -0.0008 -0.0022 -0.0004 -0.0011 -0.0009 -0.0022 -0.0016 -0.0043 -0.0016 -0.0043 -0.0019 -0.0054 -0.0012 -0.0032 -0.0027 -0.0081 -0.0004 -0.0013 -0.0048 -0.0151 -0.0058 -0.021 -0.0027 -0.0109 -0.0022 -0.0095 -0.0019 -0.0091 -0.0018 -0.0094 -0.0002 -0.0011 -0.0021 -0.012 -0.0009 -0.0057 -0.0022 -0.0166 -0.0016 -0.0155c-0.0008,-0.0086 -0.0015,-0.0171 -0.0019,-0.0257l-0.0001 -0.0018 -0.0002 -0.0047 -0.0001 -0.0029c-0.0006,-0.0199 -0.0002,-0.0396 0.0013,-0.059l0 -0.0005c0.0015,-0.0196 0.0039,-0.0387 0.0074,-0.0574l0.0002 -0.0014c0.0113,-0.061 0.0327,-0.1173 0.062,-0.165 -0.0034,0.0889 -0.005,0.1787 -0.005,0.2683 0,0.0926 0.0018,0.1851 0.0052,0.2769l0 0z"/>
   </clipPath>
   <clipPath id="id2">
    <path d="M29.9986 26.2043c-0.0441,-0.0012 -0.0842,-0.003 -0.1203,-0.0048l-0.0441 -0.0018 -0.016 -0.0012 -0.0361 -0.0018c-0.0361,-0.0024 -0.0641,-0.0048 -0.0922,-0.0071l-0.032 -0.003 0 -0.0006c-0.0161,-0.0012 -0.0281,-0.003 -0.0401,-0.0054l-0.0281 -0.0042 -0.008 -0.0012c-0.008,-0.0018 -0.016,-0.0036 -0.024,-0.0054l-0.004 -0.0012 -0.008 -0.0018 -0.008 -0.0024 0 0 -0.004 -0.0024 -0.0039 -0.0006 -0.004 -0.0018 0 0 -0.008 -0.0036 -0.004 -0.0018 0 -0.0006 -0.004 -0.0018 0 -0.0012 -0.004 -0.0019 0 -0.0006 -0.004 -0.0024 0 -0.0006 -0.004 -0.0024 0 -0.0006 0 -0.0018 0 -0.0012 -0.004 -0.0018c0,-0.0018 0,-0.0042 -0.004,-0.0065l0 -0.0006 0 -0.0012 0 -0.0054 0 -0.0012 0 -0.0018 0 -0.0048 -0.004 -0.0071c-0.0039,-0.0763 -0.012,-0.1878 -0.1002,-0.3327l-0.004 -0.0113 -0.004 -0.0054 -0.012 -0.0179c-0.0561,-0.0853 -0.1323,-0.1813 -0.1964,-0.282l0 -0.0006c-0.008,-0.0125 -0.0161,-0.0257 -0.024,-0.0387l-0.004 -0.003 0 -0.0048 -0.008 -0.0095 -0.004 -0.0131 -0.012 -0.0167 0 -0.0042 -0.004 -0.0071c-0.004,-0.0918 -0.008,-0.1848 -0.008,-0.2773 0,-0.0894 0.004,-0.1795 0.008,-0.2683l0.012 -0.0191 0 -0.0006 0.004 -0.0036 0 -0.0018 0 -0.0006 0.008 -0.0125 0 -0.0006c0.0962,-0.1175 0.2446,-0.1605 1.3229,-0.1843 1.0825,-0.0239 3.0909,-0.028 4.7947,-0.0692 1.6998,-0.0411 3.0949,-0.1193 4.1693,-0.1681 1.0784,-0.0489 1.8361,-0.0691 2.4414,-0.0906l0.0521 -0.0018 0.0161 -0.0006 0.0721 -0.003 0 0c0.4811,-0.0173 0.8539,-0.0334 1.0864,-0.0227 0.0321,0.2779 0.0481,0.5605 0.0481,0.8473 0,0.319 -0.02,0.6338 -0.0601,0.9415 -0.1203,0.0268 -0.417,0.0394 -1.331,0.0567l-0.0361 0.0006 -0.4771 0.0084 -0.3327 0.0054 -0.0241 0 -0.2926 0.0048c-2.2891,0.0364 -6.6869,0.1019 -8.8879,0.1139l-0.028 0 -0.032 0 -0.0281 0 -0.024 0.0006 -0.0241 0 -0.012 0 -0.0201 0 -0.0161 0 -0.016 0 -0.0161 0 -0.0201 0 -0.004 0c-0.7136,0.003 -1.1706,-0.0006 -1.4592,-0.0102z"/>
   </clipPath>
 </defs>
 <g id="Слой_x0020_1">
  <metadata id="CorelCorpID_0Corel-Layer"/>
  <path class="fil0 str0" d="M25.3537 29.6844c-0.267,3.5018 -0.5341,7.0033 -0.8032,10.6514 -0.2692,3.6489 -0.5403,7.4445 -0.708,9.7567 -0.1676,2.312 -0.2316,3.1401 -0.1996,3.5937 0.032,0.4535 0.16,0.5324 0.3005,0.5692 0.1406,0.0372 0.2933,0.0323 0.4462,-0.0664 0.1526,-0.0987 0.3056,-0.2909 0.3966,-0.5425 0.0913,-0.2513 0.121,-0.5619 0.3576,-2.4869 0.2368,-1.9249 0.6806,-5.4647 0.9715,-7.6627 0.2909,-2.199 0.4289,-3.0567 0.6642,-5.1428 0.2353,-2.0859 0.5681,-5.4001 0.901,-8.7143"/>
  <path class="fil0 str0" d="M27.5148 30.6651c1.1127,-0.3649 2.2254,-0.73 2.8977,-0.961 0.6725,-0.2314 0.9047,-0.3287 1.1368,-0.4263"/>
  <path class="fil0 str0" d="M39.7252 29.5553c1.3905,0.6311 2.781,1.2622 4.1712,1.8934"/>
  <path class="fil0 str0" d="M43.5711 29.6162c0.6409,3.0558 1.2816,6.1117 1.7155,8.0932 0.4339,1.9817 0.6605,2.8885 0.8921,3.7513 0.2319,0.8627 0.4685,1.6811 1.0256,3.8032 0.5568,2.1222 1.4343,5.5483 1.9101,7.3058 0.4758,1.7574 0.5498,1.8463 0.6754,1.893 0.1257,0.0469 0.3032,0.0517 0.4362,-0.0024 0.1329,-0.0543 0.2219,-0.1676 0.2636,-0.2959 0.042,-0.1282 0.037,-0.2709 -0.3918,-2.3932 -0.4289,-2.1223 -1.2816,-6.2238 -1.7131,-8.3878 -0.4313,-2.164 -0.4412,-2.3909 -0.8297,-4.3949 -0.3884,-2.0043 -1.1557,-5.7857 -1.923,-9.567"/>
  <path class="fil1" d="M36.1234 17.9077c3.8753,0 7.017,3.2125 7.017,7.1751 0,3.9624 -3.1416,7.1748 -7.017,7.1748 -3.8753,0 -7.0169,-3.2124 -7.0169,-7.1748 0,-3.9626 3.1416,-7.1751 7.0169,-7.1751z"/>
  <g style="clip-path:url(#id0)">
   <image x="43.0231" y="24.1888" width="0.5036" height="1.8676" xlink:href="ВЕРОНА_Images\ВЕРОНА_ImgID1.png"/>
  </g>
  <g style="clip-path:url(#id1)">
   <image x="28.9636" y="24.7659" width="0.2151" height="0.6348" xlink:href="ВЕРОНА_Images\ВЕРОНА_ImgID2.png"/>
  </g>
  <g style="clip-path:url(#id2)">
   <image x="29.0685" y="24.1888" width="14.1435" height="2.1037" xlink:href="ВЕРОНА_Images\ВЕРОНА_ImgID3.png"/>
  </g>
  <line class="fil0 str1" x1="29.6721" y1="22.6449" x2="42.9526" y2= "22.6449" />
  <polygon class="fil0 str1" points="29.2757,26.186 43.1773,26.186 43.1773,24.7085 29.2757,24.7085 "/>
  <polygon class="fil2" points="29.4184,26.2157 43.1701,26.1785 42.7204,27.7331 29.7513,27.6555 "/>
  <polygon class="fil0 str1" points="29.4184,26.2157 43.1701,26.1785 42.7204,27.7331 29.7513,27.6555 "/>
  <path class="fil0 str2" d="M36.5377 17.8358c3.8737,0.1623 6.8845,3.486 6.7247,7.4235 -0.1595,3.9377 -3.4294,6.9983 -7.3029,6.836 -3.8737,-0.1624 -6.8847,-3.486 -6.725,-7.4235 0.1598,-3.9377 3.4294,-6.9983 7.3032,-6.8359z"/>
  <polygon class="fil3" points="29.5054,23.2151 43.0803,23.2151 43.2768,24.7085 29.276,24.7085 "/>
  <polygon class="fil0 str1" points="29.5054,23.2151 43.0803,23.2151 43.2768,24.7085 29.276,24.7085 "/>
  <path class="fil4" d="M0.3249 36.7598m0 0l0.2382 -1.7596 0.0333 0 0.6977 1.4434 0.6908 -1.4434 0.0262 0 0.2453 1.7596 -0.1643 0 -0.1715 -1.2596 -0.6073 1.2596 -0.0452 0 -0.6098 -1.2695 -0.1642 1.2695 -0.1691 0zm2.1743 0m1.1288 -0.4313l0.1382 0.0735c-0.0454,0.0906 -0.0977,0.1642 -0.1573,0.2205 -0.0572,0.0539 -0.1239,0.0956 -0.1976,0.125 -0.0738,0.0294 -0.1573,0.0441 -0.2524,0.0441 -0.2073,0 -0.3668,-0.0686 -0.4835,-0.2083 -0.1167,-0.1397 -0.1762,-0.2965 -0.1762,-0.4705 0,-0.1642 0.05,-0.3112 0.1477,-0.4411 0.1262,-0.1642 0.293,-0.2451 0.5049,-0.2451 0.2144,0 0.3883,0.0833 0.5168,0.2524 0.0929,0.1176 0.1382,0.2646 0.1405,0.4435l-1.1432 0c0.0024,0.1495 0.05,0.2745 0.1405,0.3701 0.0929,0.0956 0.2048,0.1446 0.3382,0.1446 0.0643,0 0.1286,-0.0123 0.1906,-0.0343 0.0596,-0.0221 0.1119,-0.054 0.1547,-0.0907 0.043,-0.0392 0.0906,-0.1005 0.1382,-0.1838zm0.0024 -0.3504c-0.0214,-0.0907 -0.0523,-0.1618 -0.0952,-0.2132 -0.043,-0.0539 -0.0977,-0.098 -0.1668,-0.1299 -0.0666,-0.0318 -0.1405,-0.049 -0.2144,-0.049 -0.1262,0 -0.2334,0.0416 -0.3239,0.1225 -0.0642,0.0613 -0.1144,0.1495 -0.1477,0.2696l0.9479 0zm0.3382 0.7818m0 -1.3013l0.8311 0 0 0.1446 -0.3358 0 0 1.1567 -0.1619 0 0 -1.1567 -0.3334 0 0 -0.1446zm0.9955 1.3013m1.317 -1.3013l0 1.3013 -0.1619 0 0 -0.223c-0.0691,0.0833 -0.1453,0.1495 -0.2287,0.1912 -0.0857,0.0416 -0.1786,0.0636 -0.2786,0.0636 -0.1786,0 -0.331,-0.0661 -0.4572,-0.2009 -0.1263,-0.1324 -0.1906,-0.2941 -0.1906,-0.4852 0,-0.1863 0.0643,-0.3481 0.1929,-0.4803 0.1262,-0.1324 0.281,-0.1985 0.4596,-0.1985 0.1048,0 0.1977,0.022 0.2811,0.0662 0.0834,0.0465 0.1572,0.1127 0.2215,0.2058l0 -0.2402 0.1619 0zm-0.6525 0.1299c-0.0906,0 -0.1739,0.0221 -0.2501,0.0686 -0.0762,0.0441 -0.1358,0.1103 -0.181,0.1912 -0.0452,0.0834 -0.0691,0.1715 -0.0691,0.2622 0,0.0906 0.0239,0.1789 0.0691,0.2622 0.0452,0.0834 0.1071,0.1495 0.1834,0.1936 0.0763,0.0465 0.1596,0.0711 0.2477,0.0711 0.088,0 0.1738,-0.0221 0.2524,-0.0686 0.0785,-0.0465 0.1405,-0.1078 0.1834,-0.1887 0.0429,-0.0784 0.0642,-0.1666 0.0642,-0.2646 0,-0.1495 -0.0476,-0.2745 -0.1452,-0.375 -0.0953,-0.103 -0.2144,-0.152 -0.3548,-0.152zm0.9002 1.1715m1.1909 0l-0.1691 0 -0.4263 -0.9485 -0.4216 0.9485 -0.1738 0 0.5763 -1.3013 0.031 0 0.5835 1.3013zm0.1286 0m1.1909 0l-0.1691 0 -0.4263 -0.9485 -0.4215 0.9485 -0.1739 0 0.5763 -1.3013 0.031 0 0.5835 1.3013zm0.2477 0m0.1619 -1.3013l0 0.9632 0.9312 -0.9632 0.0119 0 0 1.3013 -0.1619 0 0 -0.9558 -0.924 0.9558 -0.0191 0 0 -1.3013 0.1619 0zm1.2051 1.3013m0.6668 -0.5857l-0.2857 0c-0.1286,0 -0.2239,-0.0344 -0.2882,-0.103 -0.0619,-0.0686 -0.0929,-0.1642 -0.0929,-0.2867l0 -0.326 0.1596 0 0 0.2353c0,0.152 0.0215,0.2451 0.0619,0.2819 0.0428,0.0367 0.1119,0.0539 0.2072,0.0539l0.2382 0 0 -0.571 0.162 0 0 1.3013 -0.162 0 0 -0.5857zm0.4621 0.5857m1.1288 -0.4313l0.1382 0.0735c-0.0453,0.0906 -0.0976,0.1642 -0.1572,0.2205 -0.0572,0.0539 -0.1239,0.0956 -0.1976,0.125 -0.0738,0.0294 -0.1573,0.0441 -0.2525,0.0441 -0.2072,0 -0.3667,-0.0686 -0.4835,-0.2083 -0.1167,-0.1397 -0.1762,-0.2965 -0.1762,-0.4705 0,-0.1642 0.05,-0.3112 0.1477,-0.4411 0.1262,-0.1642 0.293,-0.2451 0.5049,-0.2451 0.2144,0 0.3883,0.0833 0.5168,0.2524 0.0929,0.1176 0.1382,0.2646 0.1405,0.4435l-1.1432 0c0.0024,0.1495 0.05,0.2745 0.1405,0.3701 0.0929,0.0956 0.2048,0.1446 0.3382,0.1446 0.0643,0 0.1286,-0.0123 0.1906,-0.0343 0.0595,-0.0221 0.1119,-0.054 0.1547,-0.0907 0.0429,-0.0392 0.0906,-0.1005 0.1382,-0.1838zm0.0024 -0.3504c-0.0214,-0.0907 -0.0523,-0.1618 -0.0952,-0.2132 -0.043,-0.0539 -0.0977,-0.098 -0.1668,-0.1299 -0.0666,-0.0318 -0.1405,-0.049 -0.2144,-0.049 -0.1262,0 -0.2334,0.0416 -0.3239,0.1225 -0.0642,0.0613 -0.1144,0.1495 -0.1477,0.2696l0.9479 0zm0.4168 0.7818m1.2908 -1.0317l-0.1286 0.0833c-0.1119,-0.1519 -0.2643,-0.2279 -0.4596,-0.2279 -0.1548,0 -0.2834,0.0515 -0.3858,0.152 -0.1001,0.1029 -0.1524,0.2254 -0.1524,0.3701 0,0.0955 0.0238,0.1838 0.0715,0.2671 0.0452,0.0834 0.1119,0.1495 0.1929,0.1961 0.081,0.0465 0.1739,0.0686 0.2763,0.0686 0.1857,0 0.3382,-0.076 0.4572,-0.2279l0.1286 0.0882c-0.0596,0.0932 -0.1428,0.1642 -0.2429,0.2157 -0.1024,0.0539 -0.2191,0.0784 -0.3501,0.0784 -0.2,0 -0.3667,-0.0661 -0.5,-0.196 -0.131,-0.1299 -0.1977,-0.2892 -0.1977,-0.4755 0,-0.125 0.0309,-0.2426 0.0928,-0.3504 0.0619,-0.1078 0.1477,-0.1912 0.2549,-0.2524 0.1071,-0.0613 0.2286,-0.0906 0.362,-0.0906 0.0857,0 0.1667,0.0123 0.2429,0.0392 0.0786,0.027 0.1453,0.0613 0.2001,0.1029 0.0547,0.0417 0.1,0.0956 0.1381,0.1593zm0.312 1.0317m0 -1.3013l0.1619 0 0 0.549 0.5882 -0.549 0.224 0 -0.6383 0.5931 0.6908 0.7082 -0.231 0 -0.5812 -0.6029 -0.0524 0.0465 0 0.5563 -0.1619 0 0 -1.3013zm1.1956 1.3013m0.1619 -1.3013l0 0.9632 0.9313 -0.9632 0.0118 0 0 1.3013 -0.1619 0 0 -0.9558 -0.9241 0.9558 -0.019 0 0 -1.3013 0.1619 0zm1.3051 1.3013m0.1619 -1.3013l0 0.9632 0.9312 -0.9632 0.0119 0 0 1.3013 -0.1619 0 0 -0.9558 -0.924 0.9558 -0.0191 0 0 -1.3013 0.1619 0zm-0.0214 -0.5244l0.1524 0c0.0262,0.0416 0.0619,0.0735 0.1071,0.0931 0.0429,0.0221 0.0977,0.0319 0.1573,0.0319 0.0619,0 0.1143,-0.0098 0.1524,-0.027 0.0381,-0.0196 0.0738,-0.0515 0.1071,-0.098l0.1477 0c-0.0167,0.0711 -0.0596,0.1324 -0.131,0.1789 -0.0691,0.049 -0.1619,0.0735 -0.2762,0.0735 -0.1144,0 -0.2073,-0.0245 -0.2788,-0.0711 -0.0738,-0.0465 -0.119,-0.1078 -0.1381,-0.1814z"/>
  <path class="fil4" d="M0.3725 39.6796m0 -1.3013l0.1619 0 0 0.549 0.5882 -0.549 0.224 0 -0.6383 0.5931 0.6907 0.7082 -0.2309 0 -0.5812 -0.6029 -0.0523 0.0465 0 0.5563 -0.1619 0 0 -1.3013zm1.1384 1.3013m1.317 -1.3013l0 1.3013 -0.1619 0 0 -0.223c-0.0691,0.0833 -0.1453,0.1495 -0.2287,0.1912 -0.0857,0.0416 -0.1786,0.0636 -0.2786,0.0636 -0.1786,0 -0.331,-0.0661 -0.4573,-0.2009 -0.1262,-0.1324 -0.1905,-0.2941 -0.1905,-0.4852 0,-0.1863 0.0643,-0.3481 0.1929,-0.4803 0.1263,-0.1324 0.2811,-0.1985 0.4597,-0.1985 0.1048,0 0.1977,0.022 0.281,0.0662 0.0834,0.0465 0.1573,0.1127 0.2216,0.2058l0 -0.2402 0.1619 0zm-0.6526 0.1299c-0.0905,0 -0.1738,0.0221 -0.2501,0.0686 -0.0762,0.0441 -0.1358,0.1103 -0.181,0.1912 -0.0453,0.0834 -0.0691,0.1715 -0.0691,0.2622 0,0.0906 0.0238,0.1789 0.0691,0.2622 0.0452,0.0834 0.1071,0.1495 0.1834,0.1936 0.0762,0.0465 0.1596,0.0711 0.2477,0.0711 0.0881,0 0.1739,-0.0221 0.2525,-0.0686 0.0785,-0.0465 0.1405,-0.1078 0.1833,-0.1887 0.043,-0.0784 0.0643,-0.1666 0.0643,-0.2646 0,-0.1495 -0.0476,-0.2745 -0.1452,-0.375 -0.0953,-0.103 -0.2144,-0.152 -0.3549,-0.152zm1.0218 1.1715m0 -1.3013l0.1619 0 0 0.2402c0.0643,-0.0931 0.1382,-0.1593 0.2215,-0.2058 0.0834,-0.0442 0.1786,-0.0662 0.2811,-0.0662 0.1787,0 0.3334,0.0662 0.462,0.1985 0.1263,0.1323 0.1906,0.2941 0.1906,0.4803 0,0.1912 -0.0643,0.3529 -0.1906,0.4852 -0.1263,0.1348 -0.2786,0.2009 -0.4573,0.2009 -0.1,0 -0.1929,-0.022 -0.2787,-0.0636 -0.0833,-0.0442 -0.1596,-0.1079 -0.2286,-0.1936l0 0.7009 -0.1619 0 0 -1.7768zm0.6525 0.1299c-0.1405,0 -0.2596,0.049 -0.3549,0.152 -0.0976,0.1005 -0.1453,0.2254 -0.1453,0.375 0,0.098 0.0215,0.1862 0.0643,0.2646 0.0429,0.0809 0.1048,0.1422 0.1834,0.1887 0.081,0.0465 0.1667,0.0686 0.2549,0.0686 0.0857,0 0.1691,-0.0245 0.2453,-0.0711 0.0786,-0.0441 0.1381,-0.1103 0.1834,-0.1936 0.0476,-0.0833 0.0691,-0.1715 0.0691,-0.2622 0,-0.0907 -0.0215,-0.1789 -0.0667,-0.2622 -0.0454,-0.0809 -0.1072,-0.1471 -0.1834,-0.1912 -0.0762,-0.0465 -0.1596,-0.0686 -0.2501,-0.0686zm0.9694 1.1715m0 -1.3013l0.1619 0 0 0.549 0.5883 -0.549 0.2239 0 -0.6383 0.5931 0.6907 0.7082 -0.231 0 -0.5812 -0.6029 -0.0524 0.0465 0 0.5563 -0.1619 0 0 -1.3013zm1.1384 1.3013m1.317 -1.3013l0 1.3013 -0.1619 0 0 -0.223c-0.0691,0.0833 -0.1454,0.1495 -0.2287,0.1912 -0.0857,0.0416 -0.1786,0.0636 -0.2786,0.0636 -0.1787,0 -0.331,-0.0661 -0.4573,-0.2009 -0.1263,-0.1324 -0.1906,-0.2941 -0.1906,-0.4852 0,-0.1863 0.0643,-0.3481 0.1929,-0.4803 0.1263,-0.1324 0.281,-0.1985 0.4597,-0.1985 0.1048,0 0.1977,0.022 0.281,0.0662 0.0834,0.0465 0.1573,0.1127 0.2216,0.2058l0 -0.2402 0.1619 0zm-0.6525 0.1299c-0.0906,0 -0.1738,0.0221 -0.2501,0.0686 -0.0763,0.0441 -0.1358,0.1103 -0.1811,0.1912 -0.0452,0.0834 -0.0691,0.1715 -0.0691,0.2622 0,0.0906 0.0239,0.1789 0.0691,0.2622 0.0453,0.0834 0.1071,0.1495 0.1834,0.1936 0.0762,0.0465 0.1595,0.0711 0.2477,0.0711 0.0881,0 0.1738,-0.0221 0.2525,-0.0686 0.0785,-0.0465 0.1405,-0.1078 0.1833,-0.1887 0.0429,-0.0784 0.0643,-0.1666 0.0643,-0.2646 0,-0.1495 -0.0477,-0.2745 -0.1452,-0.375 -0.0953,-0.103 -0.2144,-0.152 -0.3549,-0.152zm0.9574 1.1715m1.2909 -1.0317l-0.1286 0.0833c-0.112,-0.1519 -0.2643,-0.2279 -0.4597,-0.2279 -0.1547,0 -0.2834,0.0515 -0.3858,0.152 -0.1001,0.1029 -0.1525,0.2254 -0.1525,0.3701 0,0.0955 0.0239,0.1838 0.0715,0.2671 0.0453,0.0834 0.112,0.1495 0.1929,0.1961 0.0809,0.0465 0.1738,0.0686 0.2762,0.0686 0.1858,0 0.3382,-0.076 0.4573,-0.2279l0.1286 0.0882c-0.0596,0.0932 -0.1429,0.1642 -0.243,0.2157 -0.1024,0.0539 -0.219,0.0784 -0.3501,0.0784 -0.2,0 -0.3668,-0.0661 -0.5001,-0.196 -0.131,-0.1299 -0.1977,-0.2892 -0.1977,-0.4755 0,-0.125 0.0309,-0.2426 0.0929,-0.3504 0.0619,-0.1078 0.1477,-0.1912 0.2549,-0.2524 0.1071,-0.0613 0.2286,-0.0906 0.362,-0.0906 0.0858,0 0.1667,0.0123 0.243,0.0392 0.0786,0.027 0.1453,0.0613 0.2001,0.1029 0.0547,0.0417 0.0999,0.0956 0.1381,0.1593z"/>
  <path class="fil4" d="M0.5011 42.5995m0.2358 -1.8356l0.1881 0c-0.0762,0.1593 -0.1358,0.3455 -0.181,0.5588 -0.0453,0.2132 -0.0691,0.4338 -0.0691,0.6617 0,0.2108 0.0167,0.4117 0.0524,0.6078 0.0333,0.1961 0.081,0.3676 0.1405,0.5147l-0.1787 0c-0.0571,-0.1422 -0.1025,-0.3088 -0.1358,-0.5 -0.0357,-0.1936 -0.0523,-0.3921 -0.0523,-0.6004 0,-0.2231 0.0213,-0.4411 0.0596,-0.6544 0.0404,-0.2107 0.1,-0.4068 0.1762,-0.5881zm0.5144 1.8356m0 -1.3013l1.0622 0 0 1.3013 -0.1619 0 0 -1.1445 -0.7383 0 0 1.1445 -0.1619 0 0 -1.3013zm1.3622 1.3013m0.6621 -1.3332c0.1953,0 0.3573,0.0711 0.4858,0.2181 0.1167,0.1299 0.1739,0.2868 0.1739,0.4681 0,0.1814 -0.0619,0.3406 -0.1858,0.4754 -0.1215,0.1348 -0.281,0.2034 -0.4739,0.2034 -0.1953,0 -0.3549,-0.0686 -0.4763,-0.2034 -0.1239,-0.1348 -0.1858,-0.2941 -0.1858,-0.4754 0,-0.179 0.0596,-0.3358 0.1763,-0.4681 0.1262,-0.1445 0.2905,-0.2181 0.4858,-0.2181zm0 0.1642c-0.1358,0 -0.2524,0.0515 -0.3501,0.1544 -0.0977,0.1005 -0.1454,0.2254 -0.1454,0.3701 0,0.0955 0.0215,0.1814 0.0667,0.2622 0.0453,0.0809 0.1048,0.1446 0.1787,0.1887 0.0762,0.0441 0.1595,0.0662 0.2501,0.0662 0.0881,0 0.1715,-0.0221 0.2477,-0.0662 0.0738,-0.0441 0.1357,-0.1078 0.1787,-0.1887 0.0452,-0.0808 0.0667,-0.1666 0.0667,-0.2622 0,-0.1446 -0.0477,-0.2696 -0.1454,-0.3701 -0.0976,-0.103 -0.2143,-0.1544 -0.3477,-0.1544zm0.9621 1.169m0 -1.3013l0.1619 0 0 0.2402c0.0643,-0.0931 0.1382,-0.1593 0.2215,-0.2058 0.0834,-0.0442 0.1786,-0.0662 0.2811,-0.0662 0.1786,0 0.3334,0.0662 0.462,0.1985 0.1263,0.1323 0.1905,0.2941 0.1905,0.4803 0,0.1912 -0.0642,0.3529 -0.1905,0.4852 -0.1263,0.1348 -0.2786,0.2009 -0.4573,0.2009 -0.1001,0 -0.1929,-0.022 -0.2787,-0.0636 -0.0833,-0.0442 -0.1596,-0.1079 -0.2286,-0.1936l0 0.7009 -0.1619 0 0 -1.7768zm0.6526 0.1299c-0.1405,0 -0.2596,0.049 -0.3549,0.152 -0.0976,0.1005 -0.1453,0.2254 -0.1453,0.375 0,0.098 0.0215,0.1862 0.0643,0.2646 0.0429,0.0809 0.1048,0.1422 0.1834,0.1887 0.081,0.0465 0.1667,0.0686 0.2549,0.0686 0.0857,0 0.1691,-0.0245 0.2453,-0.0711 0.0785,-0.0441 0.1381,-0.1103 0.1834,-0.1936 0.0476,-0.0833 0.0691,-0.1715 0.0691,-0.2622 0,-0.0907 -0.0215,-0.1789 -0.0667,-0.2622 -0.0454,-0.0809 -0.1073,-0.1471 -0.1834,-0.1912 -0.0762,-0.0465 -0.1596,-0.0686 -0.2501,-0.0686zm0.9074 1.1715m0.6621 -1.3332c0.1953,0 0.3573,0.0711 0.4859,0.2181 0.1167,0.1299 0.1738,0.2868 0.1738,0.4681 0,0.1814 -0.0619,0.3406 -0.1858,0.4754 -0.1214,0.1348 -0.281,0.2034 -0.4739,0.2034 -0.1953,0 -0.3548,-0.0686 -0.4763,-0.2034 -0.1239,-0.1348 -0.1857,-0.2941 -0.1857,-0.4754 0,-0.179 0.0595,-0.3358 0.1762,-0.4681 0.1263,-0.1445 0.2905,-0.2181 0.4858,-0.2181zm0 0.1642c-0.1358,0 -0.2524,0.0515 -0.3501,0.1544 -0.0977,0.1005 -0.1453,0.2254 -0.1453,0.3701 0,0.0955 0.0214,0.1814 0.0667,0.2622 0.0452,0.0809 0.1048,0.1446 0.1786,0.1887 0.0762,0.0441 0.1596,0.0662 0.2501,0.0662 0.0881,0 0.1715,-0.0221 0.2477,-0.0662 0.0738,-0.0441 0.1357,-0.1078 0.1786,-0.1887 0.0452,-0.0808 0.0667,-0.1666 0.0667,-0.2622 0,-0.1446 -0.0477,-0.2696 -0.1453,-0.3701 -0.0976,-0.103 -0.2144,-0.1544 -0.3478,-0.1544zm0.9598 1.169m1.891 0l-1.891 0 0 -1.3013 0.1619 0 0 1.1445 0.7002 0 0 -1.1445 0.1668 0 0 1.1445 0.6954 0 0 -1.1445 0.1667 0 0 1.3013zm0.362 0m0 -1.3013l0.1619 0 0 0.549 0.5883 -0.549 0.2239 0 -0.6383 0.5931 0.6908 0.7082 -0.231 0 -0.5812 -0.6029 -0.0524 0.0465 0 0.5563 -0.1619 0 0 -1.3013zm1.1337 1.3013m0.6621 -1.3332c0.1953,0 0.3572,0.0711 0.4858,0.2181 0.1167,0.1299 0.1738,0.2868 0.1738,0.4681 0,0.1814 -0.0619,0.3406 -0.1857,0.4754 -0.1215,0.1348 -0.2811,0.2034 -0.4739,0.2034 -0.1953,0 -0.3549,-0.0686 -0.4764,-0.2034 -0.1238,-0.1348 -0.1857,-0.2941 -0.1857,-0.4754 0,-0.179 0.0596,-0.3358 0.1762,-0.4681 0.1263,-0.1445 0.2906,-0.2181 0.4859,-0.2181zm0 0.1642c-0.1358,0 -0.2525,0.0515 -0.3501,0.1544 -0.0977,0.1005 -0.1453,0.2254 -0.1453,0.3701 0,0.0955 0.0215,0.1814 0.0667,0.2622 0.0452,0.0809 0.1048,0.1446 0.1786,0.1887 0.0762,0.0441 0.1596,0.0662 0.2501,0.0662 0.088,0 0.1715,-0.0221 0.2477,-0.0662 0.0738,-0.0441 0.1357,-0.1078 0.1786,-0.1887 0.0453,-0.0808 0.0667,-0.1666 0.0667,-0.2622 0,-0.1446 -0.0477,-0.2696 -0.1453,-0.3701 -0.0976,-0.103 -0.2143,-0.1544 -0.3477,-0.1544zm0.9598 1.169m0.3692 0l-0.3692 0 0 -1.3013 0.362 0c0.1382,0 0.2382,0.0319 0.3001,0.0981 0.0595,0.0637 0.0904,0.1421 0.0904,0.2279 0,0.1324 -0.0571,0.2205 -0.1691,0.2696 0.1643,0.0588 0.2454,0.174 0.2454,0.3455 0,0.2402 -0.1524,0.3602 -0.4597,0.3602zm-0.2072 -1.1567l0 0.4043 0.1071 0c0.0953,0 0.1596,-0.0049 0.1882,-0.0123 0.0309,-0.0073 0.0595,-0.0269 0.0857,-0.0588 0.0262,-0.0318 0.0381,-0.0735 0.0381,-0.125 0,-0.0539 -0.0143,-0.098 -0.0404,-0.1347 -0.0286,-0.0368 -0.0572,-0.0588 -0.0858,-0.0637 -0.0309,-0.0074 -0.0928,-0.0098 -0.1857,-0.0098l-0.1071 0zm0 0.5588l0 0.4558 0.1762 0c0.081,0 0.1405,-0.0049 0.1762,-0.0171 0.0358,-0.0098 0.0667,-0.0344 0.0906,-0.0686 0.0262,-0.0368 0.0381,-0.0809 0.0381,-0.1373 0,-0.0711 -0.0214,-0.1274 -0.0643,-0.1691 -0.0452,-0.0417 -0.1024,-0.0637 -0.1738,-0.0637l-0.2429 0zm0.8954 0.598m1.317 -1.3013l0 1.3013 -0.1619 0 0 -0.223c-0.0691,0.0833 -0.1454,0.1495 -0.2287,0.1912 -0.0857,0.0416 -0.1787,0.0636 -0.2786,0.0636 -0.1787,0 -0.331,-0.0661 -0.4573,-0.2009 -0.1263,-0.1324 -0.1906,-0.2941 -0.1906,-0.4852 0,-0.1863 0.0643,-0.3481 0.1929,-0.4803 0.1263,-0.1324 0.281,-0.1985 0.4597,-0.1985 0.1048,0 0.1976,0.022 0.281,0.0662 0.0834,0.0465 0.1573,0.1127 0.2216,0.2058l0 -0.2402 0.1619 0zm-0.6525 0.1299c-0.0906,0 -0.1738,0.0221 -0.2501,0.0686 -0.0763,0.0441 -0.1358,0.1103 -0.1811,0.1912 -0.0452,0.0834 -0.0691,0.1715 -0.0691,0.2622 0,0.0906 0.0239,0.1789 0.0691,0.2622 0.0453,0.0834 0.1071,0.1495 0.1834,0.1936 0.0762,0.0465 0.1595,0.0711 0.2477,0.0711 0.0881,0 0.1738,-0.0221 0.2524,-0.0686 0.0786,-0.0465 0.1405,-0.1078 0.1834,-0.1887 0.0429,-0.0784 0.0643,-0.1666 0.0643,-0.2646 0,-0.1495 -0.0477,-0.2745 -0.1452,-0.375 -0.0953,-0.103 -0.2144,-0.152 -0.3549,-0.152zm0.9003 1.1715m0.6549 -0.5809l-0.1167 0 -0.362 0.5809 -0.1762 0 0.3811 -0.598c-0.0953,-0.0123 -0.1715,-0.049 -0.2311,-0.1103 -0.0596,-0.0613 -0.0881,-0.1397 -0.0881,-0.2304 0,-0.1152 0.0333,-0.2058 0.1025,-0.2671 0.0666,-0.0637 0.1572,-0.0956 0.2667,-0.0956l0.3858 0 0 1.3013 -0.1619 0 0 -0.5809zm0 -0.5759l-0.1071 0c-0.1048,0 -0.1762,0.0074 -0.212,0.0196 -0.0357,0.0146 -0.0643,0.0367 -0.0857,0.071 -0.0191,0.0319 -0.031,0.076 -0.031,0.1324 0,0.0539 0.0144,0.0981 0.0405,0.1324 0.0286,0.0344 0.0596,0.0564 0.0929,0.0637 0.0333,0.0074 0.0976,0.0123 0.1953,0.0123l0.1071 0 0 -0.4313z"/>
  <path class="fil4" d="M0.3725 45.5192m0 -1.3013l1.0622 0 0 1.3013 -0.1619 0 0 -1.1445 -0.7383 0 0 1.1445 -0.1619 0 0 -1.3013zm1.3622 1.3013m0.6621 -1.3332c0.1953,0 0.3573,0.0711 0.4858,0.2181 0.1167,0.1299 0.1738,0.2868 0.1738,0.4681 0,0.1814 -0.0619,0.3406 -0.1857,0.4754 -0.1215,0.1348 -0.281,0.2034 -0.4739,0.2034 -0.1953,0 -0.3549,-0.0686 -0.4763,-0.2034 -0.1239,-0.1348 -0.1858,-0.2941 -0.1858,-0.4754 0,-0.179 0.0596,-0.3358 0.1763,-0.4681 0.1262,-0.1445 0.2905,-0.2181 0.4858,-0.2181zm0 0.1642c-0.1358,0 -0.2525,0.0515 -0.3501,0.1544 -0.0977,0.1005 -0.1454,0.2254 -0.1454,0.3701 0,0.0955 0.0215,0.1814 0.0667,0.2622 0.0453,0.0809 0.1048,0.1446 0.1787,0.1887 0.0762,0.0441 0.1595,0.0662 0.2501,0.0662 0.0881,0 0.1715,-0.0221 0.2477,-0.0662 0.0738,-0.0441 0.1357,-0.1078 0.1787,-0.1887 0.0452,-0.0808 0.0667,-0.1666 0.0667,-0.2622 0,-0.1446 -0.0477,-0.2696 -0.1454,-0.3701 -0.0976,-0.103 -0.2143,-0.1544 -0.3477,-0.1544zm0.9598 1.169m0 -1.3013l0.1619 0 0 0.549 0.5883 -0.549 0.2239 0 -0.6383 0.5931 0.6908 0.7082 -0.231 0 -0.5812 -0.6029 -0.0524 0.0465 0 0.5563 -0.1619 0 0 -1.3013zm1.198 1.3013m0 -1.3013l0.1619 0 0 0.2402c0.0643,-0.0931 0.1382,-0.1593 0.2214,-0.2058 0.0834,-0.0442 0.1786,-0.0662 0.2811,-0.0662 0.1786,0 0.3333,0.0662 0.462,0.1985 0.1263,0.1323 0.1906,0.2941 0.1906,0.4803 0,0.1912 -0.0643,0.3529 -0.1906,0.4852 -0.1263,0.1348 -0.2786,0.2009 -0.4572,0.2009 -0.1001,0 -0.1929,-0.022 -0.2788,-0.0636 -0.0833,-0.0442 -0.1595,-0.1079 -0.2286,-0.1936l0 0.7009 -0.1619 0 0 -1.7768zm0.6525 0.1299c-0.1405,0 -0.2596,0.049 -0.3548,0.152 -0.0976,0.1005 -0.1454,0.2254 -0.1454,0.375 0,0.098 0.0215,0.1862 0.0643,0.2646 0.043,0.0809 0.1048,0.1422 0.1834,0.1887 0.081,0.0465 0.1667,0.0686 0.2548,0.0686 0.0857,0 0.1691,-0.0245 0.2453,-0.0711 0.0786,-0.0441 0.1382,-0.1103 0.1834,-0.1936 0.0476,-0.0833 0.0691,-0.1715 0.0691,-0.2622 0,-0.0907 -0.0215,-0.1789 -0.0667,-0.2622 -0.0453,-0.0809 -0.1072,-0.1471 -0.1834,-0.1912 -0.0763,-0.0465 -0.1596,-0.0686 -0.2501,-0.0686zm0.9122 1.1715m1.317 -1.3013l0 1.3013 -0.1619 0 0 -0.223c-0.0691,0.0833 -0.1453,0.1495 -0.2286,0.1912 -0.0857,0.0416 -0.1787,0.0636 -0.2787,0.0636 -0.1786,0 -0.331,-0.0661 -0.4572,-0.2009 -0.1263,-0.1324 -0.1906,-0.2941 -0.1906,-0.4852 0,-0.1863 0.0643,-0.3481 0.1929,-0.4803 0.1263,-0.1324 0.281,-0.1985 0.4596,-0.1985 0.1048,0 0.1977,0.022 0.2811,0.0662 0.0834,0.0465 0.1572,0.1127 0.2215,0.2058l0 -0.2402 0.1619 0zm-0.6525 0.1299c-0.0906,0 -0.1738,0.0221 -0.2501,0.0686 -0.0762,0.0441 -0.1358,0.1103 -0.181,0.1912 -0.0452,0.0834 -0.0691,0.1715 -0.0691,0.2622 0,0.0906 0.0239,0.1789 0.0691,0.2622 0.0452,0.0834 0.1071,0.1495 0.1834,0.1936 0.0762,0.0465 0.1595,0.0711 0.2477,0.0711 0.088,0 0.1738,-0.0221 0.2524,-0.0686 0.0786,-0.0465 0.1405,-0.1078 0.1834,-0.1887 0.0429,-0.0784 0.0643,-0.1666 0.0643,-0.2646 0,-0.1495 -0.0477,-0.2745 -0.1453,-0.375 -0.0952,-0.103 -0.2144,-0.152 -0.3548,-0.152zm0.9574 1.1715m1.2908 -1.0317l-0.1286 0.0833c-0.112,-0.1519 -0.2643,-0.2279 -0.4597,-0.2279 -0.1548,0 -0.2834,0.0515 -0.3858,0.152 -0.1001,0.1029 -0.1525,0.2254 -0.1525,0.3701 0,0.0955 0.0239,0.1838 0.0715,0.2671 0.0453,0.0834 0.1119,0.1495 0.1929,0.1961 0.0809,0.0465 0.1738,0.0686 0.2762,0.0686 0.1858,0 0.3382,-0.076 0.4573,-0.2279l0.1286 0.0882c-0.0595,0.0932 -0.1428,0.1642 -0.2429,0.2157 -0.1024,0.0539 -0.219,0.0784 -0.3501,0.0784 -0.2,0 -0.3668,-0.0661 -0.5001,-0.196 -0.131,-0.1299 -0.1977,-0.2892 -0.1977,-0.4755 0,-0.125 0.0309,-0.2426 0.0929,-0.3504 0.0619,-0.1078 0.1477,-0.1912 0.2548,-0.2524 0.1072,-0.0613 0.2286,-0.0906 0.362,-0.0906 0.0858,0 0.1667,0.0123 0.2429,0.0392 0.0787,0.027 0.1454,0.0613 0.2001,0.1029 0.0548,0.0417 0.1,0.0956 0.1381,0.1593zm0.3121 1.0317m0 -1.3013l0.1619 0 0 0.549 0.5883 -0.549 0.2239 0 -0.6383 0.5931 0.6907 0.7082 -0.231 0 -0.5812 -0.6029 -0.0524 0.0465 0 0.5563 -0.1619 0 0 -1.3013zm1.1384 1.3013m1.317 -1.3013l0 1.3013 -0.1619 0 0 -0.223c-0.0691,0.0833 -0.1454,0.1495 -0.2287,0.1912 -0.0857,0.0416 -0.1786,0.0636 -0.2786,0.0636 -0.1787,0 -0.331,-0.0661 -0.4573,-0.2009 -0.1263,-0.1324 -0.1906,-0.2941 -0.1906,-0.4852 0,-0.1863 0.0643,-0.3481 0.1929,-0.4803 0.1263,-0.1324 0.281,-0.1985 0.4597,-0.1985 0.1048,0 0.1977,0.022 0.281,0.0662 0.0834,0.0465 0.1573,0.1127 0.2216,0.2058l0 -0.2402 0.1619 0zm-0.6525 0.1299c-0.0906,0 -0.1738,0.0221 -0.2501,0.0686 -0.0763,0.0441 -0.1358,0.1103 -0.1811,0.1912 -0.0452,0.0834 -0.0691,0.1715 -0.0691,0.2622 0,0.0906 0.0239,0.1789 0.0691,0.2622 0.0453,0.0834 0.1071,0.1495 0.1834,0.1936 0.0762,0.0465 0.1595,0.0711 0.2477,0.0711 0.0881,0 0.1738,-0.0221 0.2525,-0.0686 0.0785,-0.0465 0.1405,-0.1078 0.1833,-0.1887 0.0429,-0.0784 0.0643,-0.1666 0.0643,-0.2646 0,-0.1495 -0.0477,-0.2745 -0.1452,-0.375 -0.0953,-0.103 -0.2144,-0.152 -0.3549,-0.152zm0.9836 1.1715m0.1881 0.5073l-0.1881 0c0.0761,-0.1593 0.1381,-0.3456 0.1834,-0.5612 0.0477,-0.2132 0.0691,-0.4313 0.0691,-0.6592 0,-0.2108 -0.0167,-0.4118 -0.0524,-0.6078 -0.0333,-0.1961 -0.0809,-0.3676 -0.1428,-0.5147l0.1786 0c0.0596,0.1422 0.1048,0.3088 0.1405,0.5 0.0334,0.1936 0.05,0.3921 0.05,0.6004 0,0.223 -0.019,0.4411 -0.0619,0.6519 -0.0404,0.2132 -0.0976,0.4093 -0.1762,0.5907z"/>
  <line class="fil0 str3" x1="25.1452" y1="40.1153" x2="0.0005" y2= "40.291" />
  <path class="fil5" d="M25.2933 39.7501c0.1816,0 0.3289,0.1474 0.3289,0.3289 0,0.1815 -0.1474,0.3289 -0.3289,0.3289 -0.1817,0 -0.3289,-0.1474 -0.3289,-0.3289 0,-0.1816 0.1471,-0.3289 0.3289,-0.3289z"/>
  <line class="fil0 str3" x1="36.2347" y1="5.4988" x2="36.2805" y2= "24.0572" />
  <path class="fil4" d="M32.3012 1.7596m0 0l0.2382 -1.7596 0.0333 0 0.6978 1.4434 0.6907 -1.4434 0.0262 0 0.2454 1.7596 -0.1643 0 -0.1715 -1.2596 -0.6073 1.2596 -0.0453 0 -0.6097 -1.2695 -0.1643 1.2695 -0.1691 0zm2.1792 0m1.317 -1.3013l0 1.3013 -0.1619 0 0 -0.223c-0.0691,0.0833 -0.1453,0.1495 -0.2287,0.1912 -0.0857,0.0416 -0.1786,0.0636 -0.2786,0.0636 -0.1786,0 -0.331,-0.0661 -0.4572,-0.2009 -0.1263,-0.1324 -0.1906,-0.2941 -0.1906,-0.4852 0,-0.1863 0.0643,-0.3481 0.1929,-0.4803 0.1262,-0.1324 0.281,-0.1985 0.4596,-0.1985 0.1048,0 0.1977,0.022 0.2811,0.0662 0.0834,0.0465 0.1572,0.1127 0.2215,0.2058l0 -0.2402 0.1619 0zm-0.6525 0.1299c-0.0906,0 -0.1739,0.0221 -0.2501,0.0686 -0.0762,0.0441 -0.1358,0.1103 -0.181,0.1912 -0.0453,0.0834 -0.0691,0.1715 -0.0691,0.2622 0,0.0906 0.0238,0.1789 0.0691,0.2622 0.0452,0.0834 0.1071,0.1495 0.1834,0.1936 0.0762,0.0465 0.1596,0.0711 0.2477,0.0711 0.088,0 0.1738,-0.0221 0.2524,-0.0686 0.0785,-0.0465 0.1405,-0.1078 0.1833,-0.1887 0.043,-0.0784 0.0643,-0.1666 0.0643,-0.2646 0,-0.1495 -0.0476,-0.2745 -0.1452,-0.375 -0.0953,-0.103 -0.2144,-0.152 -0.3548,-0.152zm0.8788 1.1715m0 -1.3013l0.8311 0 0 0.1446 -0.3358 0 0 1.1567 -0.1619 0 0 -1.1567 -0.3334 0 0 -0.1446zm0.9908 1.3013m1.1288 -0.4313l0.1382 0.0735c-0.0453,0.0906 -0.0976,0.1642 -0.1572,0.2205 -0.0572,0.0539 -0.1239,0.0956 -0.1976,0.125 -0.0738,0.0294 -0.1573,0.0441 -0.2525,0.0441 -0.2072,0 -0.3667,-0.0686 -0.4835,-0.2083 -0.1167,-0.1397 -0.1762,-0.2965 -0.1762,-0.4705 0,-0.1642 0.05,-0.3112 0.1477,-0.4411 0.1262,-0.1642 0.293,-0.2451 0.5049,-0.2451 0.2144,0 0.3883,0.0833 0.5168,0.2524 0.0929,0.1176 0.1382,0.2646 0.1405,0.4435l-1.1432 0c0.0024,0.1495 0.05,0.2745 0.1405,0.3701 0.0929,0.0956 0.2048,0.1446 0.3382,0.1446 0.0643,0 0.1286,-0.0123 0.1906,-0.0343 0.0595,-0.0221 0.1119,-0.054 0.1547,-0.0907 0.043,-0.0392 0.0906,-0.1005 0.1382,-0.1838zm0.0024 -0.3504c-0.0214,-0.0907 -0.0523,-0.1618 -0.0952,-0.2132 -0.043,-0.0539 -0.0977,-0.098 -0.1668,-0.1299 -0.0666,-0.0318 -0.1405,-0.049 -0.2144,-0.049 -0.1262,0 -0.2334,0.0416 -0.3239,0.1225 -0.0642,0.0613 -0.1144,0.1495 -0.1477,0.2696l0.9479 0zm0.4811 0.7818m0 -1.3013l0.1619 0 0 0.2402c0.0643,-0.0931 0.1382,-0.1593 0.2215,-0.2058 0.0834,-0.0442 0.1786,-0.0662 0.2811,-0.0662 0.1787,0 0.3334,0.0662 0.462,0.1985 0.1263,0.1323 0.1906,0.2941 0.1906,0.4803 0,0.1912 -0.0643,0.3529 -0.1906,0.4852 -0.1263,0.1348 -0.2786,0.2009 -0.4573,0.2009 -0.1,0 -0.1929,-0.022 -0.2787,-0.0636 -0.0833,-0.0442 -0.1596,-0.1079 -0.2286,-0.1936l0 0.7009 -0.1619 0 0 -1.7768zm0.6525 0.1299c-0.1405,0 -0.2596,0.049 -0.3549,0.152 -0.0976,0.1005 -0.1453,0.2254 -0.1453,0.375 0,0.098 0.0215,0.1862 0.0643,0.2646 0.0429,0.0809 0.1048,0.1422 0.1834,0.1887 0.081,0.0465 0.1666,0.0686 0.2548,0.0686 0.0857,0 0.1691,-0.0245 0.2453,-0.0711 0.0786,-0.0441 0.1381,-0.1103 0.1834,-0.1936 0.0476,-0.0833 0.0691,-0.1715 0.0691,-0.2622 0,-0.0907 -0.0215,-0.1789 -0.0667,-0.2622 -0.0454,-0.0809 -0.1072,-0.1471 -0.1834,-0.1912 -0.0762,-0.0465 -0.1596,-0.0686 -0.2501,-0.0686zm0.9694 1.1715m0.1619 -1.3013l0 0.9632 0.9313 -0.9632 0.0118 0 0 1.3013 -0.1619 0 0 -0.9558 -0.9241 0.9558 -0.019 0 0 -1.3013 0.1619 0zm1.248 1.3013m1.317 -1.3013l0 1.3013 -0.1619 0 0 -0.223c-0.0691,0.0833 -0.1454,0.1495 -0.2287,0.1912 -0.0857,0.0416 -0.1786,0.0636 -0.2786,0.0636 -0.1787,0 -0.331,-0.0661 -0.4573,-0.2009 -0.1263,-0.1324 -0.1906,-0.2941 -0.1906,-0.4852 0,-0.1863 0.0643,-0.3481 0.1929,-0.4803 0.1263,-0.1324 0.281,-0.1985 0.4597,-0.1985 0.1048,0 0.1977,0.022 0.281,0.0662 0.0834,0.0465 0.1573,0.1127 0.2216,0.2058l0 -0.2402 0.1619 0zm-0.6525 0.1299c-0.0906,0 -0.1738,0.0221 -0.2501,0.0686 -0.0763,0.0441 -0.1358,0.1103 -0.1811,0.1912 -0.0452,0.0834 -0.0691,0.1715 -0.0691,0.2622 0,0.0906 0.0239,0.1789 0.0691,0.2622 0.0453,0.0834 0.1072,0.1495 0.1834,0.1936 0.0762,0.0465 0.1596,0.0711 0.2477,0.0711 0.0881,0 0.1738,-0.0221 0.2525,-0.0686 0.0785,-0.0465 0.1405,-0.1078 0.1833,-0.1887 0.0429,-0.0784 0.0643,-0.1666 0.0643,-0.2646 0,-0.1495 -0.0476,-0.2745 -0.1452,-0.375 -0.0953,-0.103 -0.2144,-0.152 -0.3549,-0.152zm0.9003 1.1715m1.1908 0l-0.1691 0 -0.4263 -0.9485 -0.4215 0.9485 -0.1738 0 0.5763 -1.3013 0.031 0 0.5835 1.3013z"/>
  <path class="fil4" d="M32.287 4.6793m0.6621 -1.3332c0.1953,0 0.3572,0.0711 0.4858,0.2181 0.1167,0.1299 0.1738,0.2868 0.1738,0.4681 0,0.1814 -0.0619,0.3406 -0.1857,0.4754 -0.1215,0.1348 -0.2811,0.2034 -0.4739,0.2034 -0.1953,0 -0.3549,-0.0686 -0.4764,-0.2034 -0.1238,-0.1348 -0.1857,-0.2941 -0.1857,-0.4754 0,-0.179 0.0596,-0.3358 0.1762,-0.4681 0.1263,-0.1445 0.2906,-0.2181 0.4859,-0.2181zm0 0.1642c-0.1358,0 -0.2525,0.0515 -0.3501,0.1544 -0.0977,0.1005 -0.1453,0.2254 -0.1453,0.3701 0,0.0955 0.0214,0.1814 0.0667,0.2622 0.0452,0.0809 0.1048,0.1446 0.1786,0.1887 0.0762,0.0441 0.1596,0.0662 0.2501,0.0662 0.088,0 0.1715,-0.0221 0.2477,-0.0662 0.0738,-0.0441 0.1357,-0.1078 0.1786,-0.1887 0.0452,-0.0808 0.0667,-0.1666 0.0667,-0.2622 0,-0.1446 -0.0477,-0.2696 -0.1453,-0.3701 -0.0976,-0.103 -0.2144,-0.1544 -0.3477,-0.1544zm0.8978 1.169m1.2742 -1.8331l0 0.1593c-0.0786,0.0147 -0.2096,0.0245 -0.4002,0.0294 -0.1357,0.0049 -0.2405,0.0147 -0.3167,0.0269 -0.0739,0.0147 -0.1382,0.0417 -0.1929,0.0809 -0.0548,0.0416 -0.1024,0.1005 -0.1382,0.1814 -0.0381,0.0809 -0.0619,0.1715 -0.0715,0.2696l-0.0167 0.1838c0.0453,-0.1495 0.1167,-0.2573 0.2191,-0.3284 0.1,-0.0686 0.2143,-0.1029 0.3382,-0.1029 0.1881,0 0.3454,0.0686 0.4716,0.2034 0.1262,0.1348 0.1881,0.2966 0.1881,0.4829 0,0.1863 -0.0619,0.3455 -0.1881,0.4779 -0.1262,0.1348 -0.2834,0.2009 -0.4739,0.2009 -0.1929,0 -0.3573,-0.0735 -0.4906,-0.223 -0.1358,-0.147 -0.2025,-0.3823 -0.2025,-0.7009 0,-0.2231 0.0239,-0.3897 0.0738,-0.5049 0.05,-0.1152 0.1071,-0.1961 0.1691,-0.2475 0.0643,-0.049 0.1477,-0.0883 0.2477,-0.1176 0.1024,-0.0294 0.2905,-0.0466 0.5691,-0.0539 0.0834,-0.0025 0.1573,-0.0074 0.2144,-0.0172zm-0.0858 1.1886c0,-0.1422 -0.0476,-0.2672 -0.1476,-0.3701 -0.0977,-0.103 -0.212,-0.1544 -0.3478,-0.1544 -0.1333,0 -0.2477,0.0515 -0.3454,0.1544 -0.0976,0.1054 -0.1476,0.2279 -0.1476,0.3724 0,0.1422 0.0476,0.2647 0.1405,0.3652 0.0953,0.098 0.212,0.1495 0.3525,0.1495 0.1429,0 0.2596,-0.0515 0.3548,-0.1519 0.0929,-0.1005 0.1405,-0.2206 0.1405,-0.3652zm0.4668 0.6445m0.1619 -1.3013l0 0.9632 0.9312 -0.9632 0.0119 0 0 1.3013 -0.1619 0 0 -0.9558 -0.924 0.9558 -0.0191 0 0 -1.3013 0.1619 0zm1.3051 1.3013m0.3692 0l-0.3692 0 0 -1.3013 0.362 0c0.1382,0 0.2382,0.0319 0.3001,0.0981 0.0596,0.0637 0.0905,0.1421 0.0905,0.2279 0,0.1324 -0.0572,0.2205 -0.1691,0.2696 0.1643,0.0588 0.2453,0.174 0.2453,0.3455 0,0.2402 -0.1524,0.3602 -0.4596,0.3602zm-0.2073 -1.1567l0 0.4043 0.1072 0c0.0952,0 0.1596,-0.0049 0.1881,-0.0123 0.031,-0.0073 0.0596,-0.0269 0.0858,-0.0588 0.0261,-0.0318 0.0381,-0.0735 0.0381,-0.125 0,-0.0539 -0.0144,-0.098 -0.0404,-0.1347 -0.0286,-0.0368 -0.0572,-0.0588 -0.0858,-0.0637 -0.0309,-0.0074 -0.0929,-0.0098 -0.1857,-0.0098l-0.1072 0zm0 0.5588l0 0.4558 0.1763 0c0.081,0 0.1405,-0.0049 0.1762,-0.0171 0.0358,-0.0098 0.0667,-0.0344 0.0905,-0.0686 0.0262,-0.0368 0.0381,-0.0809 0.0381,-0.1373 0,-0.0711 -0.0214,-0.1274 -0.0643,-0.1691 -0.0453,-0.0417 -0.1024,-0.0637 -0.1738,-0.0637l-0.243 0zm0.9527 0.598m0 -1.3013l0.1619 0 0 0.549 0.5883 -0.549 0.2239 0 -0.6383 0.5931 0.6907 0.7082 -0.231 0 -0.5812 -0.6029 -0.0524 0.0465 0 0.5563 -0.1619 0 0 -1.3013zm1.1955 1.3013m0.1619 -1.3013l0 0.9632 0.9312 -0.9632 0.0119 0 0 1.3013 -0.1619 0 0 -0.9558 -0.924 0.9558 -0.0191 0 0 -1.3013 0.1619 0z"/>
  <line class="fil0 str3" x1="36.2798" y1="27.2085" x2="36.3598" y2= "55.2369" />
  <path class="fil4" d="M31.2558 57.3404m0.1715 0l-0.1715 0 0 -1.7596 0.8574 0 0 0.1715 -0.6859 0 0 1.5881zm0.905 0m0.9003 -0.6274l-0.7383 0 0 0.6274 -0.1619 0 0 -1.3013 0.1619 0 0 0.5171 0.7383 0 0 -0.5171 0.1619 0 0 1.3013 -0.1619 0 0 -0.6274zm0.3881 0.6274m0 -1.3013l0.1691 0 0.4359 0.9975 0.424 -0.9975 0.1738 0 -0.755 1.7768 -0.1738 0 0.2477 -0.5832 -0.5216 -1.1935zm1.2718 1.3013m0 -1.3013l0.8311 0 0 0.1446 -0.3357 0 0 1.1567 -0.1619 0 0 -1.1567 -0.3335 0 0 -0.1446zm0.9908 1.3013m0.6621 -1.3332c0.1953,0 0.3572,0.0711 0.4858,0.2181 0.1167,0.1299 0.1738,0.2868 0.1738,0.4681 0,0.1814 -0.0619,0.3406 -0.1857,0.4754 -0.1215,0.1348 -0.2811,0.2034 -0.4739,0.2034 -0.1953,0 -0.3549,-0.0686 -0.4763,-0.2034 -0.1239,-0.1348 -0.1858,-0.2941 -0.1858,-0.4754 0,-0.179 0.0596,-0.3358 0.1762,-0.4681 0.1263,-0.1445 0.2906,-0.2181 0.4859,-0.2181zm0 0.1642c-0.1358,0 -0.2525,0.0515 -0.3501,0.1544 -0.0976,0.1005 -0.1453,0.2254 -0.1453,0.3701 0,0.0955 0.0215,0.1814 0.0667,0.2622 0.0452,0.0809 0.1048,0.1446 0.1786,0.1887 0.0763,0.0441 0.1596,0.0662 0.2501,0.0662 0.088,0 0.1715,-0.0221 0.2477,-0.0662 0.0738,-0.0441 0.1357,-0.1078 0.1786,-0.1887 0.0453,-0.0808 0.0667,-0.1666 0.0667,-0.2622 0,-0.1446 -0.0477,-0.2696 -0.1453,-0.3701 -0.0976,-0.103 -0.2143,-0.1544 -0.3477,-0.1544zm0.9598 1.169m0 -1.3013l0.1619 0 0 0.549 0.5882 -0.549 0.224 0 -0.6383 0.5931 0.6908 0.7082 -0.231 0 -0.5812 -0.6029 -0.0524 0.0465 0 0.5563 -0.1619 0 0 -1.3013zm1.0765 1.3013m1.1908 0l-0.1691 0 -0.4263 -0.9485 -0.4216 0.9485 -0.1738 0 0.5763 -1.3013 0.031 0 0.5835 1.3013zm0.1858 0m1.1288 -0.4313l0.1382 0.0735c-0.0453,0.0906 -0.0977,0.1642 -0.1572,0.2205 -0.0572,0.0539 -0.1239,0.0956 -0.1976,0.125 -0.0738,0.0294 -0.1573,0.0441 -0.2525,0.0441 -0.2072,0 -0.3667,-0.0686 -0.4835,-0.2083 -0.1167,-0.1397 -0.1762,-0.2965 -0.1762,-0.4705 0,-0.1642 0.05,-0.3112 0.1477,-0.4411 0.1262,-0.1642 0.293,-0.2451 0.5049,-0.2451 0.2144,0 0.3883,0.0833 0.5168,0.2524 0.0929,0.1176 0.1382,0.2646 0.1406,0.4435l-1.1432 0c0.0024,0.1495 0.05,0.2745 0.1405,0.3701 0.0929,0.0956 0.2048,0.1446 0.3382,0.1446 0.0643,0 0.1286,-0.0123 0.1906,-0.0343 0.0595,-0.0221 0.1119,-0.054 0.1547,-0.0907 0.0429,-0.0392 0.0906,-0.1005 0.1382,-0.1838zm0.0024 -0.3504c-0.0214,-0.0907 -0.0523,-0.1618 -0.0952,-0.2132 -0.043,-0.0539 -0.0977,-0.098 -0.1668,-0.1299 -0.0666,-0.0318 -0.1405,-0.049 -0.2144,-0.049 -0.1262,0 -0.2334,0.0416 -0.3239,0.1225 -0.0642,0.0613 -0.1144,0.1495 -0.1477,0.2696l0.9479 0zm0.4788 0.7818m0.1619 -1.3013l0 0.9632 0.9313 -0.9632 0.0118 0 0 1.3013 -0.1619 0 0 -0.9558 -0.924 0.9558 -0.019 0 0 -1.3013 0.1619 0zm-0.0213 -0.5244l0.1524 0c0.0262,0.0416 0.0619,0.0735 0.1071,0.0931 0.043,0.0221 0.0977,0.0319 0.1573,0.0319 0.0619,0 0.1143,-0.0098 0.1524,-0.027 0.0381,-0.0196 0.0738,-0.0515 0.1071,-0.098l0.1477 0c-0.0167,0.0711 -0.0596,0.1324 -0.131,0.1789 -0.0691,0.049 -0.1619,0.0735 -0.2762,0.0735 -0.1143,0 -0.2072,-0.0245 -0.2787,-0.0711 -0.0738,-0.0465 -0.1191,-0.1078 -0.1381,-0.1814zm1.3265 1.8258m0.9003 -0.6274l-0.7383 0 0 0.6274 -0.1619 0 0 -1.3013 0.1619 0 0 0.5171 0.7383 0 0 -0.5171 0.1619 0 0 1.3013 -0.1619 0 0 -0.6274zm0.4667 0.6274m1.317 -1.3013l0 1.3013 -0.1619 0 0 -0.223c-0.0691,0.0833 -0.1454,0.1495 -0.2287,0.1912 -0.0857,0.0416 -0.1786,0.0636 -0.2786,0.0636 -0.1787,0 -0.331,-0.0661 -0.4573,-0.2009 -0.1263,-0.1324 -0.1906,-0.2941 -0.1906,-0.4852 0,-0.1863 0.0643,-0.3481 0.1929,-0.4803 0.1263,-0.1324 0.281,-0.1985 0.4597,-0.1985 0.1048,0 0.1977,0.022 0.281,0.0662 0.0834,0.0465 0.1573,0.1127 0.2216,0.2058l0 -0.2402 0.1619 0zm-0.6525 0.1299c-0.0906,0 -0.1738,0.0221 -0.2501,0.0686 -0.0763,0.0441 -0.1358,0.1103 -0.1811,0.1912 -0.0452,0.0834 -0.0691,0.1715 -0.0691,0.2622 0,0.0906 0.0239,0.1789 0.0691,0.2622 0.0453,0.0834 0.1072,0.1495 0.1834,0.1936 0.0762,0.0465 0.1596,0.0711 0.2477,0.0711 0.0881,0 0.1738,-0.0221 0.2525,-0.0686 0.0785,-0.0465 0.1405,-0.1078 0.1833,-0.1887 0.0429,-0.0784 0.0643,-0.1666 0.0643,-0.2646 0,-0.1495 -0.0476,-0.2745 -0.1452,-0.375 -0.0953,-0.103 -0.2144,-0.152 -0.3549,-0.152zm0.9003 1.1715m0.6549 -0.5809l-0.1167 0 -0.362 0.5809 -0.1762 0 0.3811 -0.598c-0.0953,-0.0123 -0.1715,-0.049 -0.2311,-0.1103 -0.0596,-0.0613 -0.088,-0.1397 -0.088,-0.2304 0,-0.1152 0.0333,-0.2058 0.1024,-0.2671 0.0667,-0.0637 0.1572,-0.0956 0.2668,-0.0956l0.3858 0 0 1.3013 -0.1619 0 0 -0.5809zm0 -0.5759l-0.1071 0c-0.1048,0 -0.1762,0.0074 -0.212,0.0196 -0.0357,0.0146 -0.0643,0.0367 -0.0857,0.071 -0.019,0.0319 -0.031,0.076 -0.031,0.1324 0,0.0539 0.0144,0.0981 0.0405,0.1324 0.0286,0.0344 0.0596,0.0564 0.0929,0.0637 0.0333,0.0074 0.0976,0.0123 0.1953,0.0123l0.1071 0 0 -0.4313z"/>
  <path class="fil4" d="M31.1701 60.26m1.0884 -1.8038l0.1619 0 0 0.6985c0.1024,-0.1495 0.2477,-0.223 0.4382,-0.223 0.1857,0 0.3382,0.0637 0.4643,0.1936 0.1239,0.1274 0.1858,0.2916 0.1858,0.4925 0,0.201 -0.0619,0.3628 -0.1882,0.4901 -0.1262,0.1274 -0.2786,0.1936 -0.4572,0.1936 -0.1953,0 -0.343,-0.0808 -0.443,-0.2377l0 0.6715 -0.1619 0 0 -0.6715c-0.0977,0.1593 -0.2477,0.2377 -0.4478,0.2377 -0.1739,0 -0.3263,-0.0637 -0.4501,-0.1912 -0.1262,-0.1274 -0.1905,-0.2916 -0.1905,-0.4926 0,-0.2009 0.0619,-0.3652 0.1881,-0.4925 0.1239,-0.1299 0.2786,-0.1936 0.462,-0.1936 0.1953,0 0.3405,0.0735 0.4382,0.223l0 -0.6985zm0.1572 1.1862c0,0.1544 0.0428,0.277 0.1286,0.3652 0.0881,0.0883 0.1858,0.1324 0.2977,0.1324 0.1524,0 0.2738,-0.0515 0.3644,-0.1544 0.0929,-0.1054 0.1382,-0.2303 0.1382,-0.3749 0,-0.1495 -0.0477,-0.277 -0.1453,-0.375 -0.0952,-0.1005 -0.212,-0.1495 -0.3478,-0.1495 -0.1214,0 -0.2238,0.0441 -0.3096,0.1324 -0.0834,0.0907 -0.1262,0.2303 -0.1262,0.424zm-1.0813 -0.0318c0,0.147 0.0452,0.2695 0.1358,0.3749 0.0928,0.103 0.2143,0.1544 0.3667,0.1544 0.0524,0 0.1096,-0.0147 0.1691,-0.0416 0.0619,-0.027 0.1096,-0.0613 0.1454,-0.103 0.0381,-0.0441 0.0666,-0.0906 0.0833,-0.147 0.0191,-0.0539 0.0286,-0.1348 0.0286,-0.2402 0,-0.1692 -0.0429,-0.299 -0.1286,-0.3872 -0.0834,-0.0907 -0.1881,-0.1348 -0.3072,-0.1348 -0.1358,0 -0.2524,0.049 -0.3477,0.1495 -0.0977,0.098 -0.1453,0.2254 -0.1453,0.375zm2.4173 0.6494m1.317 -1.3013l0 1.3013 -0.1619 0 0 -0.223c-0.0691,0.0833 -0.1453,0.1495 -0.2286,0.1912 -0.0857,0.0416 -0.1787,0.0636 -0.2787,0.0636 -0.1786,0 -0.331,-0.0661 -0.4572,-0.2009 -0.1263,-0.1324 -0.1906,-0.2941 -0.1906,-0.4852 0,-0.1863 0.0643,-0.3481 0.1929,-0.4803 0.1263,-0.1324 0.281,-0.1985 0.4596,-0.1985 0.1048,0 0.1977,0.022 0.2811,0.0662 0.0834,0.0465 0.1572,0.1127 0.2215,0.2058l0 -0.2402 0.1619 0zm-0.6525 0.1299c-0.0906,0 -0.1738,0.0221 -0.2501,0.0686 -0.0762,0.0441 -0.1358,0.1103 -0.181,0.1912 -0.0452,0.0834 -0.0691,0.1715 -0.0691,0.2622 0,0.0906 0.0239,0.1789 0.0691,0.2622 0.0452,0.0834 0.1071,0.1495 0.1834,0.1936 0.0763,0.0465 0.1596,0.0711 0.2477,0.0711 0.088,0 0.1738,-0.0221 0.2524,-0.0686 0.0786,-0.0465 0.1405,-0.1078 0.1834,-0.1887 0.0429,-0.0784 0.0643,-0.1666 0.0643,-0.2646 0,-0.1495 -0.0477,-0.2745 -0.1453,-0.375 -0.0953,-0.103 -0.2144,-0.152 -0.3548,-0.152zm1.0193 1.1715m0.9003 -0.6274l-0.7383 0 0 0.6274 -0.1619 0 0 -1.3013 0.1619 0 0 0.5171 0.7383 0 0 -0.5171 0.1619 0 0 1.3013 -0.1619 0 0 -0.6274zm0.462 0.6274m1.1289 -0.4313l0.1382 0.0735c-0.0454,0.0906 -0.0977,0.1642 -0.1573,0.2205 -0.0572,0.0539 -0.1239,0.0956 -0.1976,0.125 -0.0738,0.0294 -0.1572,0.0441 -0.2524,0.0441 -0.2072,0 -0.3668,-0.0686 -0.4835,-0.2083 -0.1167,-0.1397 -0.1763,-0.2965 -0.1763,-0.4705 0,-0.1642 0.05,-0.3112 0.1477,-0.4411 0.1261,-0.1642 0.2929,-0.2451 0.5049,-0.2451 0.2143,0 0.3882,0.0833 0.5168,0.2524 0.0929,0.1176 0.1382,0.2646 0.1405,0.4435l-1.1432 0c0.0024,0.1495 0.05,0.2745 0.1405,0.3701 0.0929,0.0956 0.2048,0.1446 0.3382,0.1446 0.0643,0 0.1286,-0.0123 0.1906,-0.0343 0.0596,-0.0221 0.1119,-0.054 0.1548,-0.0907 0.0429,-0.0392 0.0905,-0.1005 0.1382,-0.1838zm0.0024 -0.3504c-0.0215,-0.0907 -0.0524,-0.1618 -0.0952,-0.2132 -0.0429,-0.0539 -0.0977,-0.098 -0.1668,-0.1299 -0.0666,-0.0318 -0.1405,-0.049 -0.2143,-0.049 -0.1263,0 -0.2334,0.0416 -0.324,0.1225 -0.0642,0.0613 -0.1143,0.1495 -0.1476,0.2696l0.9479 0zm0.4811 0.7818m0 -1.3013l0.1619 0 0 0.2402c0.0643,-0.0931 0.1382,-0.1593 0.2214,-0.2058 0.0834,-0.0442 0.1787,-0.0662 0.2811,-0.0662 0.1786,0 0.3334,0.0662 0.462,0.1985 0.1263,0.1323 0.1906,0.2941 0.1906,0.4803 0,0.1912 -0.0643,0.3529 -0.1906,0.4852 -0.1262,0.1348 -0.2786,0.2009 -0.4572,0.2009 -0.1001,0 -0.1929,-0.022 -0.2787,-0.0636 -0.0834,-0.0442 -0.1596,-0.1079 -0.2286,-0.1936l0 0.7009 -0.1619 0 0 -1.7768zm0.6525 0.1299c-0.1405,0 -0.2596,0.049 -0.3548,0.152 -0.0976,0.1005 -0.1453,0.2254 -0.1453,0.375 0,0.098 0.0214,0.1862 0.0642,0.2646 0.043,0.0809 0.1049,0.1422 0.1834,0.1887 0.081,0.0465 0.1667,0.0686 0.2548,0.0686 0.0857,0 0.1691,-0.0245 0.2454,-0.0711 0.0785,-0.0441 0.1381,-0.1103 0.1834,-0.1936 0.0477,-0.0833 0.0691,-0.1715 0.0691,-0.2622 0,-0.0907 -0.0214,-0.1789 -0.0667,-0.2622 -0.0453,-0.0809 -0.1072,-0.1471 -0.1834,-0.1912 -0.0762,-0.0465 -0.1596,-0.0686 -0.2501,-0.0686zm0.9122 1.1715m1.317 -1.3013l0 1.3013 -0.1619 0 0 -0.223c-0.0691,0.0833 -0.1454,0.1495 -0.2287,0.1912 -0.0857,0.0416 -0.1786,0.0636 -0.2786,0.0636 -0.1787,0 -0.331,-0.0661 -0.4573,-0.2009 -0.1263,-0.1324 -0.1906,-0.2941 -0.1906,-0.4852 0,-0.1863 0.0643,-0.3481 0.1929,-0.4803 0.1263,-0.1324 0.281,-0.1985 0.4597,-0.1985 0.1048,0 0.1977,0.022 0.281,0.0662 0.0834,0.0465 0.1573,0.1127 0.2216,0.2058l0 -0.2402 0.1619 0zm-0.6525 0.1299c-0.0906,0 -0.1738,0.0221 -0.2501,0.0686 -0.0763,0.0441 -0.1358,0.1103 -0.1811,0.1912 -0.0452,0.0834 -0.0691,0.1715 -0.0691,0.2622 0,0.0906 0.0239,0.1789 0.0691,0.2622 0.0453,0.0834 0.1071,0.1495 0.1834,0.1936 0.0762,0.0465 0.1595,0.0711 0.2477,0.0711 0.0881,0 0.1738,-0.0221 0.2524,-0.0686 0.0786,-0.0465 0.1405,-0.1078 0.1834,-0.1887 0.0429,-0.0784 0.0643,-0.1666 0.0643,-0.2646 0,-0.1495 -0.0477,-0.2745 -0.1452,-0.375 -0.0953,-0.103 -0.2144,-0.152 -0.3549,-0.152z"/>
  <path class="fil5" d="M36.2798 26.6876c0.1915,0 0.3465,0.1553 0.3465,0.3468 0,0.1912 -0.155,0.3465 -0.3465,0.3465 -0.1915,0 -0.3468,-0.1553 -0.3468,-0.3465 0,-0.1915 0.1553,-0.3468 0.3468,-0.3468z"/>
  <path class="fil5" d="M36.2798 23.7104c0.1915,0 0.3465,0.1553 0.3465,0.3468 0,0.1912 -0.155,0.3465 -0.3465,0.3465 -0.1915,0 -0.3468,-0.1553 -0.3468,-0.3465 0,-0.1915 0.1553,-0.3468 0.3468,-0.3468z"/>
  <path class="fil5" d="M36.2798 25.0484c0.1915,0 0.3465,0.1553 0.3465,0.3465 0,0.1915 -0.155,0.3468 -0.3465,0.3468 -0.1915,0 -0.3468,-0.1553 -0.3468,-0.3468 0,-0.1912 0.1553,-0.3465 0.3468,-0.3465z"/>
  <line class="fil0 str3" x1="36.3296" y1="25.4059" x2="73.3446" y2= "25.3259" />
  <path class="fil4" d="M53.8017 24.5023m0 -1.6216l1.1193 0 0 1.6216 -0.158 0 0 -1.468 -0.8033 0 0 1.468 -0.158 0 0 -1.6216zm1.4201 1.6216m1.0403 -0.3975l0.1273 0.0677c-0.0417,0.0836 -0.09,0.1513 -0.1449,0.2033 -0.0526,0.0497 -0.1141,0.0881 -0.1822,0.1152 -0.068,0.0271 -0.1448,0.0407 -0.2327,0.0407 -0.1909,0 -0.3379,-0.0633 -0.4455,-0.192 -0.1075,-0.1287 -0.1623,-0.2733 -0.1623,-0.4336 0,-0.1513 0.0461,-0.2868 0.136,-0.4065 0.1164,-0.1513 0.27,-0.2259 0.4653,-0.2259 0.1976,0 0.3577,0.0768 0.4762,0.2327 0.0857,0.1084 0.1273,0.2439 0.1295,0.4088l-1.0535 0c0.0022,0.1378 0.0461,0.253 0.1295,0.341 0.0857,0.0881 0.1887,0.1332 0.3116,0.1332 0.0593,0 0.1185,-0.0113 0.1756,-0.0316 0.0548,-0.0203 0.1032,-0.0497 0.1426,-0.0836 0.0396,-0.0361 0.0835,-0.0926 0.1274,-0.1694zm0.0022 -0.3229c-0.0198,-0.0836 -0.0483,-0.1491 -0.0878,-0.1965 -0.0395,-0.0497 -0.09,-0.0903 -0.1536,-0.1197 -0.0614,-0.0294 -0.1295,-0.0451 -0.1975,-0.0451 -0.1164,0 -0.2151,0.0384 -0.2985,0.1129 -0.0592,0.0565 -0.1053,0.1378 -0.136,0.2485l0.8734 0zm0.4411 0.7204m0.8296 -0.5782l-0.6804 0 0 0.5782 -0.1492 0 0 -1.1993 0.1492 0 0 0.4765 0.6804 0 0 -0.4765 0.1492 0 0 1.1993 -0.1492 0 0 -0.5782zm0.4258 0.5782m0.6101 -1.2286c0.1799,0 0.3292,0.0655 0.4478,0.2011 0.1075,0.1197 0.1602,0.2643 0.1602,0.4313 0,0.1671 -0.057,0.3139 -0.1712,0.4382 -0.1119,0.1242 -0.259,0.1874 -0.4368,0.1874 -0.1799,0 -0.327,-0.0633 -0.4389,-0.1874 -0.1142,-0.1242 -0.1712,-0.271 -0.1712,-0.4382 0,-0.1648 0.0548,-0.3094 0.1623,-0.4313 0.1164,-0.1332 0.2678,-0.2011 0.4478,-0.2011zm0 0.1514c-0.1251,0 -0.2327,0.0474 -0.3226,0.1422 -0.09,0.0926 -0.1338,0.2078 -0.1338,0.3411 0,0.088 0.0197,0.1671 0.0614,0.2417 0.0416,0.0745 0.0966,0.1332 0.1645,0.1738 0.0703,0.0407 0.1471,0.061 0.2305,0.061 0.0813,0 0.1581,-0.0204 0.2283,-0.061 0.068,-0.0406 0.1251,-0.0993 0.1646,-0.1738 0.0417,-0.0746 0.0614,-0.1536 0.0614,-0.2417 0,-0.1332 -0.0439,-0.2485 -0.1339,-0.3411 -0.09,-0.0949 -0.1975,-0.1422 -0.3204,-0.1422zm0.8844 1.0772m0 -1.1993l0.9789 0 0 1.1993 -0.1492 0 0 -1.0547 -0.6803 0 0 1.0547 -0.1493 0 0 -1.1993zm1.2555 1.1993m0.6102 -1.2286c0.1799,0 0.3292,0.0655 0.4477,0.2011 0.1075,0.1197 0.1602,0.2643 0.1602,0.4313 0,0.1671 -0.057,0.3139 -0.1712,0.4382 -0.112,0.1242 -0.259,0.1874 -0.4368,0.1874 -0.18,0 -0.327,-0.0633 -0.439,-0.1874 -0.1141,-0.1242 -0.1712,-0.271 -0.1712,-0.4382 0,-0.1648 0.0549,-0.3094 0.1624,-0.4313 0.1164,-0.1332 0.2678,-0.2011 0.4478,-0.2011zm0 0.1514c-0.1251,0 -0.2327,0.0474 -0.3226,0.1422 -0.09,0.0926 -0.1339,0.2078 -0.1339,0.3411 0,0.088 0.0198,0.1671 0.0614,0.2417 0.0417,0.0745 0.0967,0.1332 0.1646,0.1738 0.0703,0.0407 0.1471,0.061 0.2305,0.061 0.0812,0 0.158,-0.0204 0.2283,-0.061 0.068,-0.0406 0.1251,-0.0993 0.1646,-0.1738 0.0417,-0.0746 0.0614,-0.1536 0.0614,-0.2417 0,-0.1332 -0.0439,-0.2485 -0.1339,-0.3411 -0.09,-0.0949 -0.1975,-0.1422 -0.3204,-0.1422zm0.7748 1.0772m1.0974 0l-0.1559 0 -0.3928 -0.874 -0.3885 0.874 -0.1602 0 0.5311 -1.1993 0.0285 0 0.5378 1.1993zm0.2281 0m0.1493 -1.1993l0 0.8876 0.8581 -0.8876 0.011 0 0 1.1993 -0.1492 0 0 -0.8808 -0.8516 0.8808 -0.0176 0 0 -1.1993 0.1493 0zm1.0776 1.1993m0 -1.1993l0.1558 0 0.4016 0.9192 0.3907 -0.9192 0.1602 0 -0.6957 1.6374 -0.1602 0 0.2283 -0.5375 -0.4806 -1.0999zm1.3037 1.1993m0 -1.1993l0.1492 0 0 0.2214c0.0592,-0.0858 0.1273,-0.1468 0.2041,-0.1897 0.0768,-0.0407 0.1646,-0.061 0.259,-0.061 0.1646,0 0.3073,0.061 0.4258,0.183 0.1163,0.1219 0.1756,0.271 0.1756,0.4426 0,0.1761 -0.0593,0.3252 -0.1756,0.4472 -0.1164,0.1242 -0.2568,0.1852 -0.4214,0.1852 -0.0922,0 -0.1777,-0.0204 -0.2568,-0.0587 -0.0768,-0.0407 -0.147,-0.0993 -0.2106,-0.1784l0 0.6459 -0.1492 0 0 -1.6374zm0.6013 0.1197c-0.1295,0 -0.2391,0.0452 -0.3269,0.14 -0.09,0.0926 -0.1339,0.2078 -0.1339,0.3456 0,0.0903 0.0197,0.1716 0.0593,0.2439 0.0395,0.0745 0.0965,0.131 0.169,0.1739 0.0746,0.0429 0.1536,0.0632 0.2348,0.0632 0.079,0 0.1558,-0.0225 0.226,-0.0655 0.0725,-0.0406 0.1273,-0.1016 0.169,-0.1784 0.0439,-0.0768 0.0636,-0.1581 0.0636,-0.2417 0,-0.0836 -0.0197,-0.1648 -0.0615,-0.2417 -0.0416,-0.0746 -0.0987,-0.1355 -0.1689,-0.1761 -0.0702,-0.0429 -0.147,-0.0633 -0.2305,-0.0633zm0.8363 1.0796m1.0403 -0.3975l0.1273 0.0677c-0.0417,0.0836 -0.09,0.1513 -0.1448,0.2033 -0.0527,0.0497 -0.1141,0.0881 -0.1822,0.1152 -0.0681,0.0271 -0.1449,0.0407 -0.2327,0.0407 -0.1909,0 -0.338,-0.0633 -0.4456,-0.192 -0.1075,-0.1287 -0.1623,-0.2733 -0.1623,-0.4336 0,-0.1513 0.0461,-0.2868 0.1361,-0.4065 0.1163,-0.1513 0.2699,-0.2259 0.4652,-0.2259 0.1976,0 0.3578,0.0768 0.4762,0.2327 0.0857,0.1084 0.1274,0.2439 0.1296,0.4088l-1.0535 0c0.0022,0.1378 0.0461,0.253 0.1295,0.341 0.0857,0.0881 0.1888,0.1332 0.3117,0.1332 0.0593,0 0.1184,-0.0113 0.1756,-0.0316 0.0549,-0.0203 0.1032,-0.0497 0.1426,-0.0836 0.0396,-0.0361 0.0835,-0.0926 0.1274,-0.1694zm0.0022 -0.3229c-0.0197,-0.0836 -0.0483,-0.1491 -0.0878,-0.1965 -0.0394,-0.0497 -0.09,-0.0903 -0.1536,-0.1197 -0.0614,-0.0294 -0.1295,-0.0451 -0.1975,-0.0451 -0.1163,0 -0.2151,0.0384 -0.2985,0.1129 -0.0593,0.0565 -0.1054,0.1378 -0.1361,0.2485l0.8734 0zm0.3116 0.7204m0 -1.1993l0.766 0 0 0.1332 -0.3095 0 0 1.066 -0.1492 0 0 -1.066 -0.3073 0 0 -0.1332zm0.9174 1.1993m1.2138 -1.1993l0 1.1993 -0.1492 0 0 -0.2055c-0.0636,0.0768 -0.1339,0.1378 -0.2107,0.1761 -0.079,0.0384 -0.1646,0.0587 -0.2568,0.0587 -0.1645,0 -0.3051,-0.061 -0.4214,-0.1852 -0.1163,-0.1219 -0.1756,-0.271 -0.1756,-0.4472 0,-0.1716 0.0593,-0.3207 0.1779,-0.4426 0.1164,-0.1219 0.259,-0.183 0.4236,-0.183 0.0965,0 0.1822,0.0204 0.259,0.061 0.0768,0.0429 0.1448,0.1039 0.2041,0.1897l0 -0.2214 0.1492 0zm-0.6014 0.1197c-0.0834,0 -0.1602,0.0204 -0.2304,0.0633 -0.0702,0.0406 -0.1251,0.1016 -0.1669,0.1761 -0.0416,0.0768 -0.0636,0.1581 -0.0636,0.2417 0,0.0836 0.022,0.1648 0.0636,0.2417 0.0417,0.0768 0.0988,0.1378 0.169,0.1784 0.0703,0.043 0.1471,0.0655 0.2283,0.0655 0.0813,0 0.1602,-0.0203 0.2327,-0.0632 0.0723,-0.0429 0.1295,-0.0994 0.1689,-0.1739 0.0395,-0.0723 0.0592,-0.1535 0.0592,-0.2439 0,-0.1378 -0.0438,-0.253 -0.1338,-0.3456 -0.0878,-0.0948 -0.1976,-0.14 -0.3271,-0.14zm0.9394 1.0796m0.8296 -0.5782l-0.6804 0 0 0.5782 -0.1492 0 0 -1.1993 0.1492 0 0 0.4765 0.6804 0 0 -0.4765 0.1492 0 0 1.1993 -0.1492 0 0 -0.5782z"/>
  <path class="fil0 str1" d="M31.041 29.751c-2.1822,-0.0074 -4.2171,-0.0299 -5.6873,-0.0664 -3.7473,-0.0936 -3.8278,-0.2811 -3.9259,-0.5354 -0.0981,-0.2544 -0.2141,-0.5755 -0.2319,-0.9726 -0.0178,-0.3968 0.0625,-0.87 -0.0847,-2.1013 -0.1474,-1.2312 -0.5223,-3.2211 -0.8033,-4.8985 -0.2811,-1.6774 -0.4684,-3.0427 -0.4149,-4.1982 0.0535,-1.1555 0.3481,-2.1011 0.7538,-2.7838 0.406,-0.6826 0.9236,-1.102 3.9039,-2.253 2.98,-1.1509 8.4229,-3.0338 13.8881,-4.9698 5.4654,-1.9363 10.9528,-3.926 14.2141,-5.0772 3.2613,-1.151 4.2963,-1.4631 4.9476,-1.5883 0.6513,-0.1248 0.9188,-0.0624 1.1777,0.0494 0.2589,0.1115 0.5087,0.272 0.6424,0.4952 0.1338,0.223 0.1519,0.5086 -0.9813,3.81 -1.1335,3.3014 -3.4176,9.6188 -4.9565,13.7097 -1.5392,4.0912 -2.3335,5.9559 -3.016,7.2362 -0.6825,1.2805 -1.2538,1.9764 -1.856,2.4717 -0.6023,0.4952 -1.2358,0.7895 -2.0208,1.0395 -0.7295,0.2319 -1.5901,0.4258 -5.0568,0.5344"/>
  <path class="fil0 str1" d="M59.2635 0.6587c-1.2919,0.6946 -2.584,1.3892 -5.3445,2.4457 -2.7608,1.0569 -6.9901,2.4754 -11.6432,3.9923 -4.6532,1.5169 -9.7302,3.132 -13.1969,4.2339 -3.4663,1.1019 -5.3224,1.6908 -6.3942,2.0588 -1.0718,0.3681 -1.3596,0.5154 -1.5841,0.6403 -0.2245,0.1248 -0.3855,0.2269 -0.5466,0.3294"/>
  <path class="fil0 str1" d="M20.7959 24.6319c-0.1695,0.2007 -0.3389,0.4016 -0.4284,0.7717 -0.0892,0.3704 -0.0981,0.9102 -0.1025,1.3341 -0.0045,0.4239 -0.0045,0.7316 0.0781,1.0104 0.0824,0.2791 0.2476,0.5288 0.4158,0.678 0.1684,0.1492 0.3399,0.1978 0.5112,0.2463"/>
  <line class="fil0 str4" x1="21.1096" y1="24.8302" x2="29.1112" y2= "24.8302" />
  <line class="fil0 str4" x1="43.4977" y1="24.8302" x2="50.8199" y2= "24.8302" />
  <line class="fil0 str4" x1="21.2956" y1="28.5284" x2="30.1686" y2= "28.5284" />
  <line class="fil0 str4" x1="42.2868" y1="28.5284" x2="47.869" y2= "28.5284" />
  <path class="fil0 str3" d="M49.5797 53.9936c0.128,-0.0032 0.2558,-0.0065 0.4045,-0.0518 0.1485,-0.0453 0.3179,-0.1322 0.4874,-0.2195"/>
  <path class="fil0 str3" d="M23.67 53.5115c0.1034,0.0443 0.2067,0.0886 0.3156,0.1181 0.1091,0.0296 0.2237,0.0442 0.3386,0.05 0.1147,0.0059 0.2295,0.0025 0.3442,-0.001"/>
 </g>
</svg>
