<?xml version="1.0" encoding="UTF-8"?>
<!DOCTYPE svg PUBLIC "-//W3C//DTD SVG 1.1//EN" "http://www.w3.org/Graphics/SVG/1.1/DTD/svg11.dtd">
<!-- Creator: CorelDRAW 2020 -->
<svg xmlns="http://www.w3.org/2000/svg" xml:space="preserve" width="83.6129mm" height="88.5504mm" version="1.1" style="shape-rendering:geometricPrecision; text-rendering:geometricPrecision; image-rendering:optimizeQuality; fill-rule:evenodd; clip-rule:evenodd"
viewBox="0 0 40.1559 42.5272"
 xmlns:xlink="http://www.w3.org/1999/xlink"
 xmlns:xodm="http://www.corel.com/coreldraw/odm/2003">
 <defs>
  <style type="text/css">
   <![CDATA[
    .str3 {stroke:#252422;stroke-width:0.3389;stroke-miterlimit:22.926}
    .str1 {stroke:#252422;stroke-width:0.2542;stroke-miterlimit:22.926}
    .str2 {stroke:#252422;stroke-width:0.1694;stroke-miterlimit:22.926}
    .str0 {stroke:#252422;stroke-width:0.0961;stroke-miterlimit:22.926}
    .fil3 {fill:none}
    .fil0 {fill:none;fill-rule:nonzero}
    .fil2 {fill:#262523}
    .fil4 {fill:#252422}
    .fil1 {fill:#252422;fill-rule:nonzero}
   ]]>
  </style>
 </defs>
 <g id="Слой_x0020_1">
  <metadata id="CorelCorpID_0Corel-Layer"/>
  <line class="fil0 str0" x1="-0" y1="0.3807" x2="11.1302" y2= "0.3807" />
  <line class="fil0 str0" x1="1.0128" y1="27.6117" x2="1.0128" y2= "16.4054" />
  <path class="fil1" d="M1.6098 16.202m-1.1687 -0.9768c-0.2541,0 -0.3999,0.1827 -0.3999,0.4621 0,0.2774 0.1459,0.4622 0.3999,0.4622 0.1502,0 0.2828,-0.0987 0.3424,-0.1954 0,0 0.011,0 0.011,0 0.0707,0.1323 0.1878,0.2479 0.3933,0.2479 0.2695,0 0.444,-0.1786 0.444,-0.5147 0,-0.3361 -0.1745,-0.5146 -0.444,-0.5146 -0.2099,0 -0.3204,0.1156 -0.3867,0.2416l-0.011 0c-0.0663,-0.0924 -0.1922,-0.189 -0.3491,-0.189zm0.4418 0.4768c0.0574,-0.1869 0.1193,-0.3214 0.3049,-0.3214 0.19,0 0.2629,0.1324 0.2629,0.3067 0,0.1765 -0.0729,0.3067 -0.2629,0.3067 -0.1613,0 -0.2718,-0.0819 -0.3292,-0.2143l0.0243 -0.0778zm-0.1812 -0.0273c-0.042,0.1407 -0.1326,0.2668 -0.2607,0.2668 -0.1281,0 -0.2187,-0.0988 -0.2187,-0.2542 0,-0.1533 0.0906,-0.2542 0.2187,-0.2542 0.1281,0 0.2342,0.0651 0.2872,0.1533l-0.0265 0.0882zm0.908 -0.7226m-1.3786 -0.981l-0.1679 0 0 0.9222 0.1812 0 0 -0.6555 0.0088 0 0.3513 0.3529 0.1767 0 0 -0.1533c0,-0.1492 0.0751,-0.3277 0.3358,-0.3277 0.2629,0 0.3336,0.1723 0.3336,0.3214 0,0.1618 -0.0751,0.2689 -0.2607,0.3488l0.095 0.1723c0.2209,-0.103 0.3468,-0.2542 0.3468,-0.521 0,-0.3256 -0.1812,-0.5293 -0.5147,-0.5293 -0.3005,0 -0.475,0.1723 -0.5104,0.4432l-0.0088 0 -0.3667 -0.3739zm1.3786 -0.2668m-1.3874 -0.5378c0,-0.1723 0.1436,-0.3277 0.6142,-0.3277 0.4706,0 0.6142,0.1555 0.6142,0.3277 0,0.1744 -0.1436,0.3298 -0.6142,0.3298 -0.4706,0 -0.6142,-0.1555 -0.6142,-0.3298zm1.4095 0c0,-0.2773 -0.1922,-0.5377 -0.7954,-0.5377 -0.6031,0 -0.7954,0.2604 -0.7954,0.5377 0,0.2794 0.1922,0.5378 0.7954,0.5378 0.6032,0 0.7954,-0.2584 0.7954,-0.5378z"/>
  <line class="fil0 str0" x1="0.8835" y1="12.3602" x2="0.8835" y2= "1.3136" />
  <line class="fil0 str0" x1="0.02" y1="28.6659" x2="12.0397" y2= "28.6659" />
  <polygon class="fil2" points="0.6903,27.6244 0.9968,28.5639 1.3153,27.6283 "/>
  <polygon class="fil3 str0" points="0.6903,27.6244 0.9968,28.5639 1.3153,27.6283 "/>
  <polygon class="fil2" points="1.2057,1.4735 0.8993,0.5342 0.5807,1.4694 "/>
  <polygon class="fil3 str0" points="1.2057,1.4735 0.8993,0.5342 0.5807,1.4694 "/>
  <line class="fil3 str0" x1="5.9836" y1="30.5733" x2="11.3535" y2= "28.3319" />
  <path class="fil4" d="M7.8671 34.2823m0.6306 0.4141l-0.3199 0.1701 0.0976 0.1837 0.3199 -0.1701 0.1025 0.1929 0.16 -0.0851 -0.1026 -0.1929 0.8856 -0.471 -0.0917 -0.1725 -1.214 -0.1181 -0.1483 0.0788 0.3107 0.5842zm-0.0452 -0.4708l0.0078 -0.0042 0.7727 0.0744 0.0039 0.0074 -0.5793 0.3081 -0.2052 -0.3857zm0.0251 1.2047m0.9299 0.6475c0.277,-0.1473 0.3912,-0.4078 0.2452,-0.6824 -0.0612,-0.115 -0.1788,-0.1762 -0.2864,-0.195 0,0 -0.0049,-0.0093 -0.0049,-0.0093 0.2849,-0.142 0.4922,-0.1285 0.5869,0.0495 0.0513,0.0964 0.0703,0.1934 -0.06,0.3389l0.1618 0.1161c0.1809,-0.2056 0.1489,-0.3695 0.0582,-0.5401 -0.143,-0.2689 -0.4251,-0.3664 -1.0044,-0.0583 -0.3882,0.2064 -0.5895,0.449 -0.4129,0.781 0.1292,0.243 0.3908,0.3727 0.7166,0.1995zm-0.1015 -0.1815c-0.1912,0.1017 -0.3595,0.0769 -0.4552,-0.103 -0.0631,-0.1187 -0.0551,-0.3013 0.296,-0.488 0.1252,0 0.2848,0.0603 0.3459,0.1752 0.0839,0.1577 0.0005,0.3162 -0.1867,0.4158zm-0.2524 0.6171m1.4775 -0.1766c0.0809,0.1521 0.0271,0.3568 -0.3884,0.5777 -0.4155,0.221 -0.6153,0.1511 -0.6962,-0.001 -0.0818,-0.1539 -0.028,-0.3586 0.3875,-0.5795 0.4155,-0.221 0.6153,-0.1511 0.6971,0.0028zm-1.2445 0.6618c0.1302,0.2448 0.4222,0.3846 0.9547,0.1014 0.5326,-0.2832 0.58,-0.6034 0.4498,-0.8483 -0.1312,-0.2466 -0.4222,-0.3845 -0.9548,-0.1013 -0.5326,0.2832 -0.5809,0.6016 -0.4498,0.8482z"/>
  <line class="fil3 str0" x1="7.0808" y1="30.3212" x2="8.6019" y2= "33.6214" />
  <polygon class="fil2" points="7.8943,31.2513 7.0459,30.259 7.1292,31.5619 "/>
  <polygon class="fil3 str0" points="7.8943,31.2513 7.0459,30.259 7.1292,31.5619 "/>
  <line class="fil3 str0" x1="10.2133" y1="37.4208" x2="11.4658" y2= "40.2645" />
  <path class="fil4" d="M23.7167 40.5413m0.507 -0.5587l0.1184 0.3424 0.1966 -0.068 -0.1184 -0.3424 0.2065 -0.0714 -0.0592 -0.1712 -0.2065 0.0714 -0.3279 -0.9479 -0.1846 0.0638 -0.3051 1.1809 0.0549 0.1587 0.6254 -0.2164zm-0.4722 -0.0283l-0.0029 -0.0084 0.1934 -0.7518 0.008 -0.0028 0.2145 0.6202 -0.413 0.1428zm1.2061 0.1579m-0.1842 -1.0981c-0.0004,-0.2196 0.0622,-0.3277 0.2151,-0.3806 0.1569,-0.0543 0.2681,0.0358 0.3179,0.1799 0.1264,0.3654 -0.1665,0.7846 -0.4109,1.1193l0.0621 0.1795 0.9292 -0.3214 -0.0592 -0.1712 -0.6611 0.2287c0,0 -0.0029,-0.0084 -0.0029,-0.0084 0.2254,-0.3187 0.468,-0.7229 0.3394,-1.0946 -0.0961,-0.2777 -0.3274,-0.3683 -0.5737,-0.2831 -0.2343,0.081 -0.3548,0.2466 -0.3566,0.5371l0.2007 0.0147zm1.3318 0.7012m0.0547 -1.487c0.1629,-0.0563 0.3567,0.0286 0.5105,0.4733 0.1539,0.4448 0.0539,0.6313 -0.109,0.6876 -0.1648,0.057 -0.3586,-0.0279 -0.5124,-0.4726 -0.1538,-0.4447 -0.0539,-0.6313 0.1109,-0.6883zm0.4608 1.3321c0.2621,-0.0907 0.4455,-0.3575 0.2483,-0.9275 -0.1971,-0.57 -0.5061,-0.6665 -0.7683,-0.5758 -0.264,0.0913 -0.4454,0.3574 -0.2482,0.9274 0.1972,0.57 0.5042,0.6672 0.7682,0.5759z"/>
  <line class="fil3 str0" x1="27.1735" y1="38.5418" x2="31.7135" y2= "36.9828" />
  <polygon class="fil2" points="31.4649,37.3174 32.2549,36.7239 31.2669,36.7246 "/>
  <polygon class="fil3 str0" points="31.4649,37.3174 32.2549,36.7239 31.2669,36.7246 "/>
  <line class="fil3 str0" x1="32.459" y1="37.2131" x2="31.3063" y2= "33.42" />
  <line class="fil3 str0" x1="17.4162" y1="42.0243" x2="23.2048" y2= "40.1031" />
  <line class="fil3 str0" x1="38.9681" y1="32.6252" x2="38.9681" y2= "27.1542" />
  <path class="fil4" d="M39.5804 26.3761m-1.3602 -0.3328l0 -0.6257 -0.1805 0 0 0.7952 0.7506 0.1214 0.0748 -0.1862c-0.0969,-0.0774 -0.1364,-0.1967 -0.1364,-0.2867 0,-0.1507 0.0924,-0.3202 0.3543,-0.3202 0.2619,0 0.3389,0.1695 0.3389,0.3202 0,0.1591 -0.077,0.2658 -0.2619,0.3453l0.0946 0.1695c0.2223,-0.1026 0.3478,-0.2449 0.3478,-0.5148 0,-0.3244 -0.1871,-0.5274 -0.5194,-0.5274 -0.3323,0 -0.5348,0.203 -0.5348,0.5274 0,0.0962 0.0352,0.1758 0.0902,0.2448 0,0 -0.0044,0.0084 -0.0044,0.0084l-0.4138 -0.0711zm1.3602 -0.9082m-1.3822 -0.5358c0,-0.1716 0.1431,-0.3265 0.6119,-0.3265 0.4688,0 0.6119,0.1549 0.6119,0.3265 0,0.1737 -0.143,0.3286 -0.6119,0.3286 -0.4688,0 -0.6119,-0.1549 -0.6119,-0.3286zm1.4042 0c0,-0.2762 -0.1915,-0.5357 -0.7923,-0.5357 -0.6009,0 -0.7923,0.2595 -0.7923,0.5357 0,0.2784 0.1915,0.5358 0.7923,0.5358 0.6009,0 0.7923,-0.2574 0.7923,-0.5358zm-0.022 -0.7199m-1.3822 -0.5357c0,-0.1716 0.1431,-0.3265 0.6119,-0.3265 0.4688,0 0.6119,0.1549 0.6119,0.3265 0,0.1737 -0.143,0.3285 -0.6119,0.3285 -0.4688,0 -0.6119,-0.1549 -0.6119,-0.3285zm1.4042 0c0,-0.2762 -0.1915,-0.5357 -0.7923,-0.5357 -0.6009,0 -0.7923,0.2595 -0.7923,0.5357 0,0.2783 0.1915,0.5357 0.7923,0.5357 0.6009,0 0.7923,-0.2574 0.7923,-0.5357z"/>
  <line class="fil3 str0" x1="38.7971" y1="21.9107" x2="38.7971" y2= "15.8917" />
  <polygon class="fil2" points="38.542,32.4652 38.9469,33.7064 39.3676,32.4705 "/>
  <polygon class="fil3 str0" points="38.542,32.4652 38.9469,33.7064 39.3676,32.4705 "/>
  <polygon class="fil2" points="39.2229,17.2126 38.818,15.9715 38.3973,17.2073 "/>
  <polygon class="fil3 str0" points="39.2229,17.2126 38.818,15.9715 38.3973,17.2073 "/>
  <line class="fil3 str0" x1="32.7861" y1="15.8916" x2="40.1559" y2= "15.8916" />
  <path class="fil3 str1" d="M14.4015 20.2512c-0.041,0.0186 -0.0867,0.0532 -0.1399,0.0801 -0.0532,0.0268 -0.114,0.0456 -0.2201,0.0595 -0.106,0.0139 -0.2575,0.0227 -0.3661,0.0223 -0.1086,-0.0005 -0.1743,-0.0101 -0.2362,-0.0499 -0.0619,-0.0402 -0.1198,-0.1103 -0.1609,-0.1703 -0.0412,-0.0605 -0.0656,-0.1108 -0.1174,-0.5064 -0.0519,-0.3958 -0.1313,-1.1367 -0.2577,-2.1585 -0.1267,-1.0217 -0.3005,-2.3238 -0.4696,-3.4324 -0.1694,-1.1085 -0.3339,-2.0234 -0.6099,-2.9566 -0.2761,-0.933 -0.6633,-1.8845 -1.1209,-2.7447 -0.4574,-0.86 -0.985,-1.6285 -1.511,-2.3528 -0.526,-0.7243 -1.0504,-1.4044 -1.3967,-1.9106 -0.346,-0.5062 -0.5137,-0.8385 -0.5978,-1.0809 -0.0839,-0.2424 -0.0839,-0.3951 -0.0562,-0.54 0.0273,-0.1448 0.0823,-0.2821 0.1844,-0.4422 0.1021,-0.1599 0.2516,-0.343 0.4086,-0.4993 0.1572,-0.156 0.3219,-0.2853 0.5751,-0.4141 0.2533,-0.1288 0.5947,-0.257 0.9659,-0.3636 0.3711,-0.1066 0.772,-0.1913 1.15,-0.2533 0.3783,-0.0624 0.7339,-0.1019 1.1607,-0.1418 0.4268,-0.04 0.9244,-0.0803 1.4276,-0.1149 0.503,-0.0344 1.0114,-0.0633 1.3232,-0.081 0.3115,-0.0175 0.4264,-0.0239 0.4989,-0.0308 0.0723,-0.0072 0.1023,-0.0149 0.1825,-0.0234 0.0802,-0.0086 0.2104,-0.018 0.4544,-0.0186 0.244,-0.0003 0.6018,0.0076 0.8995,0.0158 0.2977,0.008 0.5355,0.0159 0.6753,0.0231 0.1396,0.0069 0.1812,0.0134 0.2127,0.0178 0.0317,0.0048 0.0535,0.008 0.0691,0.0095 0.0158,0.0012 0.0253,0.0007 0.051,-0.0034 0.0256,-0.0039 0.0674,-0.0119 0.2814,-0.0049 0.214,0.0069 0.6001,0.0288 0.9372,0.0579 0.3373,0.0293 0.626,0.0657 0.8211,0.0957 0.1948,0.0295 0.2963,0.0522 0.3778,0.0724 0.0815,0.0203 0.143,0.0381 0.1777,0.044 0.0345,0.0059 0.0423,-0.0002 0.0664,-0.0036 0.0241,-0.0036 0.0644,-0.0046 0.1794,0.0034 0.1151,0.008 0.3048,0.0249 0.5805,0.0659 0.2755,0.0414 0.6368,0.1066 0.9427,0.1664 0.3062,0.0598 0.5567,0.1142 0.6887,0.1498 0.132,0.0355 0.1452,0.0523 0.1591,0.0596 0.0137,0.0073 0.0283,0.0051 0.0539,-0.0007 0.0256,-0.0058 0.0623,-0.0147 0.1135,-0.0161 0.0511,-0.0013 0.1167,0.0051 0.4274,0.0786 0.3109,0.0737 0.8671,0.2145 1.1906,0.2955 0.3236,0.0812 0.4148,0.1022 0.4886,0.1257 0.0741,0.0234 0.131,0.0493 0.1669,0.072 0.0357,0.0229 0.0505,0.043 0.0647,0.0519 0.0141,0.0088 0.0278,0.0066 0.0454,0.0076 0.0176,0.0013 0.0395,0.0059 0.07,0.012 0.0305,0.006 0.07,0.0134 0.2475,0.0698 0.1777,0.0562 0.4937,0.1615 0.8463,0.3026 0.3526,0.1411 0.7419,0.3185 0.9869,0.4371 0.2452,0.1188 0.3462,0.1791 0.5056,0.2802 0.1594,0.101 0.3777,0.2428 0.5073,0.3382 0.1295,0.0956 0.1706,0.1448 0.2375,0.1944 0.0671,0.0495 0.1598,0.0991 0.2272,0.1474 0.0674,0.0485 0.1096,0.0957 0.1374,0.1243 0.028,0.0286 0.0417,0.0386 0.2155,0.1674 0.174,0.1289 0.5083,0.3764 0.7854,0.5808 0.277,0.2045 0.4971,0.3654 0.8246,0.604 0.3277,0.2382 0.7629,0.5537 1.1519,0.8399 0.389,0.2856 0.7319,0.5421 0.9963,0.7466 0.2643,0.2045 0.45,0.357 0.584,0.4729 0.134,0.1154 0.2165,0.1942 0.2909,0.2702 0.0744,0.0756 0.1406,0.1489 0.2118,0.2426 0.0712,0.094 0.1471,0.2086 0.2109,0.3707 0.064,0.1621 0.116,0.3715 0.1586,0.6412 0.0425,0.2694 0.0755,0.5988 0.0918,0.921 0.0163,0.3223 0.0158,0.6374 -0.0303,1.0682 -0.0461,0.431 -0.1376,0.9776 -0.3229,2.0195 -0.1855,1.0418 -0.4651,2.5787 -0.6345,3.4805 -0.1694,0.9019 -0.2286,1.1687 -0.2857,1.3559 -0.0571,0.1871 -0.1118,0.2944 -0.2241,0.4103 -0.1123,0.1156 -0.2821,0.2391 -0.5852,0.3568 -0.3031,0.1174 -0.7396,0.2287 -1.6231,0.4049 -0.8837,0.1759 -2.2144,0.4168 -3.7208,0.6628 -1.5063,0.2455 -3.1882,0.4964 -4.9602,0.7387 -1.7722,0.2418 -3.6345,0.4754 -4.7016,0.5977 -1.067,0.1223 -1.3386,0.1337 -1.545,0.1364 -0.2062,0.0027 -0.3473,-0.0036 -0.4625,-0.0105 -0.115,-0.0069 -0.2043,-0.0146 -0.3365,-0.0598 -0.1323,-0.045 -0.3077,-0.1274 -0.4134,-0.167 -0.1057,-0.0397 -0.1418,-0.0366 -0.1828,-0.0176z"/>
  <path class="fil3 str1" d="M14.4064 20.2353c-0.0798,-0.0625 -0.1596,-0.125 -0.2094,-0.3065 -0.0498,-0.1813 -0.0695,-0.4818 -0.0542,-0.6861 0.0152,-0.2044 0.0654,-0.3126 0.0915,-0.4148 0.0259,-0.1022 0.0273,-0.1983 0.0427,-0.3255 0.0151,-0.1274 0.0442,-0.286 0.0739,-0.4498 0.0298,-0.164 0.0603,-0.3333 0.0579,-0.6633 -0.0024,-0.3302 -0.0374,-0.8212 -0.0945,-1.5363 -0.0572,-0.7152 -0.1365,-1.6544 -0.2829,-2.5937 -0.1464,-0.9393 -0.3599,-1.8786 -0.6725,-2.7582 -0.3126,-0.8798 -0.7243,-1.7004 -1.1772,-2.4901 -0.4529,-0.79 -0.9469,-1.5492 -1.4471,-2.3299 -0.5001,-0.7807 -1.0063,-1.5829 -1.3327,-2.0661 -0.3264,-0.4834 -0.4727,-0.6481 -0.6313,-0.79 -0.1585,-0.1417 -0.3293,-0.2606 -0.5138,-0.3658 -0.1845,-0.1052 -0.3827,-0.1967 -0.5498,-0.2436 -0.167,-0.0469 -0.303,-0.0493 -0.4389,-0.0515"/>
  <path class="fil3 str2" d="M14.0404 13.3189c1.8125,-0.1784 3.625,-0.357 5.0482,-0.4614 1.4232,-0.1045 2.457,-0.135 3.3414,-0.1243 0.8844,0.0107 1.6193,0.0627 2.3513,0.1922 0.7319,0.1296 1.4608,0.3371 2.7736,0.7854 1.3127,0.4481 3.2096,1.1374 4.1809,1.5292 0.9713,0.3919 1.0171,0.4864 1.0308,0.5794 0.0139,0.0932 -0.0046,0.1845 -0.2623,0.3019 -0.2577,0.1174 -0.7546,0.2607 -1.6727,0.427 -0.9178,0.1662 -2.2567,0.3552 -4.1443,0.6313 -1.8878,0.276 -4.3244,0.6389 -5.927,0.8676 -1.6026,0.2287 -2.3711,0.3233 -3.0054,0.3751 -0.6343,0.0519 -1.1345,0.061 -1.5248,0.0503 -0.3904,-0.0107 -0.6709,-0.0412 -0.8783,-0.0815 -0.2074,-0.0405 -0.3416,-0.0908 -0.4629,-0.1342 -0.1211,-0.0435 -0.2294,-0.0801 -0.317,-0.113 -0.0875,-0.0328 -0.1544,-0.0622 -0.2211,-0.0913"/>
  <path class="fil3 str2" d="M14.2874 18.4228c0.1946,0.0583 0.3893,0.1166 0.5696,0.1716 0.1804,0.055 0.3467,0.1069 0.7407,0.1572 0.3943,0.0503 1.0164,0.0991 1.576,0.0886 0.5596,-0.0108 1.0567,-0.081 1.8648,-0.196 0.8082,-0.1152 1.9274,-0.2753 3,-0.4339 1.0728,-0.1586 2.099,-0.3156 3.0963,-0.4559 0.9972,-0.1403 1.9655,-0.2638 2.7858,-0.3919 0.8203,-0.1279 1.4928,-0.2607 2.1644,-0.3812 0.6718,-0.1205 1.3427,-0.2287 1.7949,-0.3233 0.4521,-0.0946 0.6853,-0.1754 0.8241,-0.2425 0.1387,-0.0671 0.183,-0.1204 0.2272,-0.1738"/>
  <path class="fil3 str1" d="M32.7668 15.8194c0.0549,0.1408 0.1098,0.2818 0.1555,0.4693 0.0458,0.1879 0.0824,0.4227 0.1083,0.5845 0.0259,0.1616 0.0412,0.2499 0.0403,0.3388 -0.0005,0.0885 -0.0173,0.1774 -0.0337,0.2665"/>
  <path class="fil3 str1" d="M13.4071 20.3396c-0.2194,-0.2513 -0.439,-0.5025 -0.5981,-0.6872 -0.1589,-0.1849 -0.2577,-0.3031 -0.4906,-0.5723 -0.233,-0.2692 -0.6001,-0.6896 -0.9229,-1.0566 -0.3226,-0.3671 -0.6009,-0.6809 -0.7863,-0.9076 -0.1855,-0.2265 -0.2782,-0.3658 -0.3674,-0.5362 -0.0895,-0.1706 -0.1752,-0.3722 -0.298,-0.7473 -0.1225,-0.3753 -0.2816,-0.9239 -0.4928,-1.6921 -0.2115,-0.7682 -0.4751,-1.7559 -0.743,-2.7614 -0.268,-1.0057 -0.5402,-2.0294 -0.7693,-2.8894 -0.2289,-0.8599 -0.4148,-1.5562 -0.5852,-2.2488 -0.1703,-0.6928 -0.3251,-1.3822 -0.4233,-1.9174 -0.0981,-0.5352 -0.1394,-0.9162 -0.1332,-1.2265 0.0065,-0.3102 0.0605,-0.5496 0.1113,-0.7067 0.0507,-0.157 0.0981,-0.232 0.1507,-0.309 0.0525,-0.0769 0.1105,-0.156 0.1881,-0.2445 0.0778,-0.0883 0.1753,-0.1859 0.2993,-0.2806 0.1238,-0.0949 0.2741,-0.1869 0.4065,-0.2603 0.1321,-0.0734 0.2463,-0.1283 0.3605,-0.1832"/>
  <path class="fil3 str2" d="M29.8937 14.4852c0.4574,-0.6191 0.9149,-1.2382 1.3876,-1.7322 0.4727,-0.494 0.9607,-0.8631 1.4379,-1.1833 0.4772,-0.3202 0.9439,-0.5916 1.2175,-0.749 0.2736,-0.1572 0.3544,-0.2006 0.4351,-0.244"/>
  <path class="fil3 str2" d="M28.5945 14.0096c0.366,-0.8081 0.7319,-1.6163 1.165,-2.3574 0.4331,-0.7411 0.9332,-1.415 1.3281,-1.9 0.3949,-0.4849 0.6847,-0.7807 0.9698,-1.0491 0.2851,-0.2684 0.5657,-0.5093 0.8234,-0.68 0.2577,-0.1708 0.4925,-0.2714 0.6899,-0.3438 0.1972,-0.0723 0.357,-0.1161 0.5168,-0.1601"/>
  <path class="fil3 str2" d="M27.4365 13.6701c0.3467,-1.0457 0.6933,-2.0916 1.0481,-2.9956 0.3546,-0.904 0.7175,-1.6665 1.0515,-2.2535 0.3339,-0.5871 0.6389,-0.9987 0.9195,-1.3159 0.2806,-0.3172 0.5367,-0.5398 0.7502,-0.7045 0.2135,-0.1647 0.3843,-0.2714 0.5452,-0.3538 0.1608,-0.0823 0.3119,-0.1403 0.4629,-0.1982"/>
  <path class="fil3 str2" d="M26.5152 13.3678c0.2418,-0.9786 0.4836,-1.957 0.7431,-2.8763 0.2597,-0.9193 0.5373,-1.7793 0.8071,-2.531 0.2699,-0.7518 0.5322,-1.3953 0.7335,-1.8252 0.2013,-0.43 0.3416,-0.6465 0.5069,-0.8215 0.1655,-0.1749 0.3562,-0.3084 0.5115,-0.3983 0.1555,-0.09 0.2761,-0.1364 0.3979,-0.1715 0.122,-0.0349 0.2454,-0.0583 0.3688,-0.0817"/>
  <path class="fil3 str2" d="M25.5027 13.0791c0.1508,-0.7221 0.3016,-1.4444 0.5249,-2.4131 0.2233,-0.9688 0.5192,-2.1841 0.7768,-3.1957 0.2577,-1.0118 0.4773,-1.82 0.6801,-2.3757 0.2028,-0.5559 0.3888,-0.8593 0.5489,-1.0628 0.1601,-0.2036 0.2943,-0.3073 0.401,-0.3742 0.1068,-0.0673 0.1861,-0.0978 0.2696,-0.1235 0.0837,-0.0259 0.1716,-0.0471 0.2595,-0.0683"/>
  <path class="fil3 str2" d="M24.3287 12.8041c0.3202,-1.8633 0.6404,-3.7267 0.9193,-5.2256 0.2792,-1.4989 0.5171,-2.6334 0.7245,-3.3897 0.2074,-0.7563 0.3843,-1.1345 0.5245,-1.3723 0.1403,-0.2379 0.244,-0.3355 0.3478,-0.4078 0.104,-0.0723 0.2081,-0.1194 0.3123,-0.1664"/>
  <path class="fil3 str2" d="M22.9471 12.745c0.366,-2.2645 0.7321,-4.5289 1.0096,-6.2193 0.2775,-1.6903 0.4666,-2.8065 0.6069,-3.4744 0.1403,-0.6678 0.2318,-0.8874 0.3126,-1.0707 0.0808,-0.1833 0.1509,-0.3302 0.2211,-0.4773"/>
  <path class="fil3 str2" d="M21.603 12.7353c0.1584,-1.7886 0.3168,-3.5773 0.4598,-5.1943 0.1433,-1.617 0.2714,-3.0627 0.3675,-4.043 0.0961,-0.9806 0.1601,-1.4959 0.1921,-1.813 0.032,-0.3173 0.032,-0.4363 0.0305,-0.5347 -0.0015,-0.0985 -0.0044,-0.1765 -0.0074,-0.2547"/>
  <path class="fil3 str2" d="M20.1119 12.7911c0.0211,-0.3678 0.0422,-0.7355 0.0518,-1.6268 0.0098,-0.8914 0.0083,-2.3064 0.0135,-3.7138 0.0054,-1.4074 0.0176,-2.8072 0.0344,-3.8792 0.0168,-1.0719 0.0381,-1.8161 0.0159,-2.2666 -0.0222,-0.4507 -0.0877,-0.6077 -0.1376,-0.7007 -0.0496,-0.0932 -0.0837,-0.1221 -0.1177,-0.1511"/>
  <path class="fil3 str2" d="M18.4919 12.9036c0.003,-0.5898 0.0059,-1.1795 -0.0385,-2.1527 -0.0442,-0.9735 -0.1355,-2.3308 -0.2714,-4.0325 -0.1357,-1.7017 -0.3157,-3.748 -0.4361,-4.8672 -0.1204,-1.1191 -0.1814,-1.3114 -0.2411,-1.4331 -0.0596,-0.1218 -0.1179,-0.1735 -0.176,-0.225"/>
  <path class="fil3 str2" d="M14.8018 0.1863c0.1411,0.1147 0.2822,0.2296 0.3865,0.3846 0.104,0.155 0.1711,0.3502 0.473,2.1586 0.3019,1.8084 0.8387,5.2301 1.1216,7.1902 0.2828,1.9601 0.3117,2.4589 0.3239,2.7371 0.0122,0.2784 0.0076,0.3363 0.0031,0.3941"/>
  <path class="fil3 str2" d="M15.6782 13.1586c-0.5964,-3.1191 -1.1927,-6.2381 -1.6524,-8.3098 -0.4598,-2.0719 -0.7831,-3.0966 -0.9966,-3.6516 -0.2135,-0.555 -0.3172,-0.6404 -0.4087,-0.7075 -0.0913,-0.0672 -0.1703,-0.116 -0.2494,-0.165"/>
  <path class="fil3 str2" d="M10.0268 0.6101c0.2445,0.1123 0.4889,0.2249 0.73,0.4944 0.2413,0.2697 0.4792,0.6967 0.9518,2.0812 0.4727,1.3845 1.1802,3.7267 1.6392,5.4726 0.459,1.7458 0.6694,2.8955 0.7758,3.5698 0.1066,0.6741 0.1091,0.8729 0.1115,1.0716"/>
  <path class="fil3 str2" d="M8.3089 1.1546c0.3566,0.2389 0.7131,0.4778 1.0532,0.8839 0.3398,0.4061 0.6631,0.9794 1.0008,1.789 0.3375,0.8095 0.6894,1.8554 1.0413,2.9011"/>
  <path class="fil3 str3" d="M12.5337 19.3304c-0.13,0.8971 -0.2601,1.7944 -0.3722,2.6431 -0.1123,0.8488 -0.2067,1.6488 -0.3097,2.4914 -0.103,0.8424 -0.2143,1.7268 -0.2922,2.3568 -0.0779,0.6301 -0.1222,1.0057 -0.1428,1.2331 -0.0205,0.2272 -0.0174,0.306 -0.0048,0.3617 0.0127,0.0558 0.0351,0.0883 0.0727,0.1133 0.0376,0.0251 0.0904,0.0427 0.1484,0.0471 0.0578,0.0042 0.1208,-0.0048 0.1727,-0.0269 0.052,-0.022 0.093,-0.0572 0.1245,-0.1069 0.0313,-0.0496 0.0532,-0.1138 0.1042,-0.3426 0.051,-0.2286 0.1312,-0.6219 0.2385,-1.1599 0.1072,-0.5379 0.242,-1.2205 0.406,-2.0549 0.164,-0.8345 0.3575,-1.8207 0.5027,-2.5865 0.145,-0.7658 0.2419,-1.3115 0.3387,-1.8571"/>
  <path class="fil3 str3" d="M16.9227 20.4586c-0.0981,1.4286 -0.1964,2.8568 -0.2877,4.2051 -0.0913,1.3483 -0.1758,2.6163 -0.2396,3.7738 -0.0635,1.1572 -0.106,2.2039 -0.1566,3.3765 -0.0505,1.1727 -0.1093,2.4714 -0.1521,3.4668 -0.043,0.9952 -0.0703,1.6872 -0.0812,2.0865 -0.0109,0.3993 -0.0054,0.5064 0.0176,0.581 0.0232,0.0742 0.064,0.116 0.1184,0.1487 0.0544,0.0324 0.1225,0.0554 0.1767,0.068 0.0542,0.012 0.0947,0.0135 0.1445,0.0044 0.0497,-0.0091 0.1084,-0.0291 0.1567,-0.0593 0.0481,-0.0304 0.0854,-0.071 0.1142,-0.1274 0.0288,-0.057 0.049,-0.1296 0.0661,-0.233 0.0173,-0.1032 0.0315,-0.2372 0.1493,-1.4054 0.1179,-1.1683 0.3394,-3.3714 0.5538,-5.6786 0.2145,-2.3076 0.4222,-4.7194 0.561,-6.4695 0.1389,-1.7503 0.2089,-2.8387 0.2787,-3.9272"/>
  <path class="fil3 str3" d="M22.2934 19.79c-0.1494,1.8432 -0.299,3.6863 -0.3808,4.7176 -0.0817,1.0313 -0.0959,1.251 -0.0961,1.3823 -0.0003,0.1315 0.0131,0.1742 0.0563,0.2145 0.043,0.0403 0.1157,0.0778 0.1701,0.0937 0.0542,0.0159 0.0901,0.0105 0.1338,0 0.0438,-0.0105 0.0955,-0.0257 0.1243,-0.0894 0.029,-0.0635 0.0347,-0.1755 0.0744,-0.4637 0.0396,-0.2882 0.1128,-0.7528 0.2094,-1.3783 0.0966,-0.6257 0.2164,-1.4123 0.3402,-2.2176 0.1239,-0.8053 0.2518,-1.6293 0.3795,-2.4533"/>
  <path class="fil3 str0" d="M27.416 19.0156c0.3114,0.0274 0.6228,0.0549 0.8278,0.0808 0.205,0.0261 0.3036,0.0507 0.3614,0.0791 0.0578,0.0286 0.0747,0.0611 0.1354,0.5372 0.0607,0.4763 0.165,1.3963 0.2804,2.3716 0.1154,0.9754 0.2418,2.0063 0.4207,3.3036 0.1789,1.2971 0.4103,2.8608 0.6062,4.2245 0.1959,1.3636 0.3561,2.5271 0.4452,3.1452 0.0891,0.618 0.1072,0.6907 0.1357,0.7451 0.0286,0.0542 0.0678,0.0901 0.1123,0.1174 0.0444,0.0271 0.0944,0.0452 0.1582,0.0466 0.0639,0.0013 0.1418,-0.0144 0.1989,-0.0405 0.0571,-0.0259 0.0934,-0.0624 0.1201,-0.1034 0.0269,-0.0412 0.0442,-0.0871 0.0542,-0.1303 0.01,-0.0432 0.0125,-0.0839 -0.0816,-1.2238 -0.0942,-1.1401 -0.285,-3.3792 -0.4656,-5.3628 -0.1804,-1.9836 -0.3505,-3.7119 -0.4937,-5.0443 -0.1434,-1.3323 -0.2601,-2.2691 -0.3767,-3.2057"/>
  <path class="fil3 str3" d="M27.2453 18.9938c0.3683,0.0345 0.7366,0.0693 0.9703,0.0993 0.2333,0.0295 0.3319,0.0542 0.3897,0.0825 0.0578,0.0286 0.0749,0.061 0.1355,0.5374 0.0607,0.4763 0.165,1.3961 0.2804,2.3714 0.1154,0.9756 0.2416,2.0062 0.4205,3.3035 0.1789,1.2973 0.4103,2.8609 0.6062,4.2246 0.196,1.3637 0.3561,2.5271 0.4452,3.1454 0.0893,0.6179 0.1072,0.6906 0.1359,0.7448 0.0286,0.0546 0.0678,0.0903 0.1122,0.1178 0.0446,0.0269 0.0944,0.0451 0.1582,0.0464 0.0639,0.0012 0.142,-0.0143 0.1989,-0.0405 0.0573,-0.0258 0.0936,-0.0624 0.1203,-0.1035 0.0268,-0.041 0.044,-0.0869 0.054,-0.1301 0.01,-0.0432 0.0125,-0.0839 -0.0815,-1.2239 -0.0942,-1.1397 -0.2851,-3.379 -0.4656,-5.3626 -0.1804,-1.9835 -0.3505,-3.7118 -0.4939,-5.0441 -0.1434,-1.3325 -0.2601,-2.2693 -0.3765,-3.2059"/>
  <line class="fil3 str0" x1="17.5041" y1="42.5108" x2="15.8804" y2= "38.05" />
  <polygon class="fil2" points="18.1254,41.3799 17.4049,42.0562 18.3872,41.9475 "/>
  <polygon class="fil3 str0" points="18.1254,41.3799 17.4049,42.0562 18.3872,41.9475 "/>
  <line class="fil3 str0" x1="10.8427" y1="40.7052" x2="16.717" y2= "38.2535" />
  <polygon class="fil2" points="10.6466,39.3849 11.4814,40.3886 11.4158,39.0849 "/>
  <polygon class="fil3 str0" points="10.6466,39.3849 11.4814,40.3886 11.4158,39.0849 "/>
  <line class="fil3 str0" x1="30.7749" y1="33.7996" x2="40.1256" y2= "33.7996" />
  <path class="fil4" d="M20.6495 13.8218m0.6797 0.3273l-0.2946 0.2108 0.121 0.1691 0.2946 -0.2108 0.1271 0.1777 0.1473 -0.1055 -0.1271 -0.1776 0.8157 -0.5837 -0.1137 -0.1589 -1.2189 0.043 -0.1366 0.0977 0.385 0.5382zm-0.1069 -0.4609l0.0072 -0.0051 0.7758 -0.0281 0.0049 0.0068 -0.5336 0.3818 -0.2543 -0.3554zm0.1729 1.1757m1.3048 -0.5229l0.3655 0.5109 0.1473 -0.1054 -0.4646 -0.6493 -0.6836 0.3393 0.0477 0.1958c0.1243,0.0067 0.2263,0.0809 0.2789,0.1544 0.088,0.123 0.1116,0.3154 -0.1022,0.4683 -0.2139,0.153 -0.3758,0.0596 -0.4637,-0.0633 -0.0929,-0.1299 -0.0924,-0.262 0.0121,-0.4349l-0.1763 -0.0831c-0.1216,0.2135 -0.1409,0.403 0.0168,0.6234 0.1895,0.2648 0.4608,0.3212 0.7321,0.1271 0.2713,-0.1941 0.318,-0.4781 0.1285,-0.7429 -0.0562,-0.0786 -0.1314,-0.1229 -0.2167,-0.1472 0,0 -0.0013,-0.0094 -0.0013,-0.0094l0.3794 -0.1836zm-0.5799 1.536m1.4413 -0.37c0.1002,0.1401 0.0739,0.3501 -0.3089,0.624 -0.3827,0.2738 -0.59,0.231 -0.6902,0.0909 -0.1014,-0.1418 -0.0752,-0.3518 0.3076,-0.6256 0.3827,-0.2738 0.59,-0.231 0.6914,-0.0892zm-1.1463 0.8202c0.1613,0.2255 0.4692,0.3255 0.9598,-0.0255 0.4905,-0.351 0.4952,-0.6747 0.3339,-0.9002 -0.1626,-0.2273 -0.4693,-0.3255 -0.9598,0.0255 -0.4905,0.351 -0.4965,0.6729 -0.3339,0.9002z"/>
  <line class="fil3 str0" x1="18.9265" y1="12.9681" x2="20.9794" y2= "15.9666" />
  <polygon class="fil2" points="19.8844,13.7487 18.8816,12.9126 19.1821,14.1831 "/>
  <polygon class="fil3 str0" points="19.8844,13.7487 18.8816,12.9126 19.1821,14.1831 "/>
  <line class="fil3 str0" x1="20.9794" y1="15.9664" x2="22.1946" y2= "17.8396" />
  <polygon class="fil2" points="21.2261,16.9085 22.2174,17.758 21.9341,16.4837 "/>
  <polygon class="fil3 str0" points="21.2261,16.9085 22.2174,17.758 21.9341,16.4837 "/>
  <path class="fil3 str0" d="M16.0103 37.6339c0.1105,0.0505 0.2211,0.1011 0.3483,0.1221 0.1272,0.0212 0.2713,0.0127 0.4152,0.0042"/>
  <path class="fil3 str0" d="M30.6619 33.2478c0.091,0.0085 0.1821,0.0169 0.2616,0.0052 0.0793,-0.0115 0.1472,-0.0434 0.215,-0.0751"/>
  <path class="fil3 str0" d="M21.8465 25.7507c0.1239,0.0349 0.2479,0.07 0.3109,0.0875 0.0629,0.0174 0.0651,0.0174 0.091,0.0047 0.0259,-0.0127 0.0757,-0.0381 0.1255,-0.0635"/>
  <path class="fil3 str0" d="M11.5001 28.0856c0.0572,0.0456 0.1143,0.0912 0.1811,0.1191 0.0668,0.0281 0.143,0.0388 0.2192,0.0493"/>
  <line class="fil3 str0" x1="15.8849" y1="24.4782" x2="14.2612" y2= "20.0174" />
  <line class="fil3 str0" x1="34.521" y1="21.0616" x2="32.8972" y2= "16.601" />
  <line class="fil3 str0" x1="27.4189" y1="21.8118" x2="33.7354" y2= "20.9145" />
  <polygon class="fil2" points="33.4687,21.2189 34.3562,20.7844 33.3854,20.5996 "/>
  <polygon class="fil3 str0" points="33.4687,21.2189 34.3562,20.7844 33.3854,20.5996 "/>
  <line class="fil3 str0" x1="15.6245" y1="23.6227" x2="23.3798" y2= "22.5295" />
  <polygon class="fil2" points="16.442,23.1226 15.6074,23.6519 16.5925,23.7292 "/>
  <polygon class="fil3 str0" points="16.442,23.1226 15.6074,23.6519 16.5925,23.7292 "/>
  <path class="fil4" d="M23.5997 22.9693m0.9608 -0.6007c-0.0266,-0.3126 -0.2214,-0.5199 -0.5312,-0.4935 -0.1298,0.011 -0.2323,0.0951 -0.292,0.1867 0,0 -0.0105,0.0009 -0.0105,0.0009 -0.0186,-0.3177 0.0752,-0.5031 0.2762,-0.5202 0.1088,-0.0093 0.2055,0.0113 0.288,0.1883l0.1704 -0.1032c-0.118,-0.2472 -0.2812,-0.2821 -0.4738,-0.2656 -0.3036,0.0258 -0.504,0.2469 -0.4483,0.9007 0.0374,0.4381 0.1814,0.7185 0.5561,0.6865 0.2742,-0.0233 0.4963,-0.213 0.4649,-0.5806zm-0.2068 0.022c0.0184,0.2158 -0.0705,0.3608 -0.2735,0.3781 -0.1339,0.0114 -0.2989,-0.0677 -0.3326,-0.4639 0.0492,-0.1151 0.1674,-0.2382 0.2971,-0.2493 0.1779,-0.0152 0.2909,0.1238 0.309,0.3351zm0.4684 0.4745m0.4181 -1.4281c0.1716,-0.0146 0.3387,0.1153 0.3786,0.5841 0.04,0.4689 -0.1027,0.6252 -0.2744,0.6398 -0.1738,0.0148 -0.3408,-0.1151 -0.3808,-0.584 -0.04,-0.4689 0.1027,-0.6252 0.2765,-0.6399zm0.1197 1.4044c0.2762,-0.0235 0.5195,-0.2372 0.4683,-0.8381 -0.0512,-0.6009 -0.3271,-0.7703 -0.6034,-0.7468 -0.2784,0.0237 -0.5195,0.2372 -0.4683,0.8381 0.0512,0.6009 0.3249,0.7705 0.6034,0.7468zm0.7181 -0.0834m0.418 -1.4281c0.1716,-0.0146 0.3387,0.1153 0.3787,0.5841 0.04,0.4689 -0.1027,0.6252 -0.2744,0.6398 -0.1738,0.0148 -0.3408,-0.1151 -0.3808,-0.584 -0.04,-0.4689 0.1027,-0.6252 0.2765,-0.6399zm0.1197 1.4044c0.2763,-0.0235 0.5195,-0.2372 0.4683,-0.8381 -0.0512,-0.6009 -0.3271,-0.7704 -0.6034,-0.7468 -0.2784,0.0237 -0.5195,0.2372 -0.4683,0.8381 0.0512,0.6009 0.325,0.7705 0.6034,0.7468z"/>
 </g>
</svg>
